<svg width="363" height="83" viewBox="0 0 363 83" fill="none" xmlns="http://www.w3.org/2000/svg">
<path d="M81.5486 44.874V39.096H90.2966V12.636H93.6446L82.4126 19.332V12.744L92.2946 6.80402H97.2626V39.096H105.471V44.874H81.5486ZM129.533 45.414C125.069 45.414 121.631 43.722 119.219 40.338C116.807 36.918 115.601 32.058 115.601 25.758C115.601 19.386 116.807 14.544 119.219 11.232C121.631 7.92002 125.069 6.26402 129.533 6.26402C134.033 6.26402 137.471 7.92002 139.847 11.232C142.259 14.544 143.465 19.368 143.465 25.704C143.465 32.04 142.259 36.918 139.847 40.338C137.471 43.722 134.033 45.414 129.533 45.414ZM129.533 39.69C131.981 39.69 133.799 38.574 134.987 36.342C136.175 34.074 136.769 30.528 136.769 25.704C136.769 20.88 136.175 17.388 134.987 15.228C133.799 13.032 131.981 11.934 129.533 11.934C127.121 11.934 125.303 13.032 124.079 15.228C122.891 17.388 122.297 20.88 122.297 25.704C122.297 30.528 122.891 34.074 124.079 36.342C125.303 38.574 127.121 39.69 129.533 39.69ZM174.031 44.874V26.892L175.489 31.05L159.127 6.80402H167.173L178.405 24.084H176.893L188.125 6.80402H195.901L179.593 31.05L180.997 26.892V44.874H174.031ZM205.738 44.874V6.80402H231.388V12.258H212.434V22.788H230.146V28.296H212.434V39.366H231.388V44.874H205.738ZM238.356 44.874L255.582 6.80402H261.414L278.856 44.874H271.782L267.138 34.182L269.946 36.072H247.104L250.02 34.182L245.376 44.874H238.356ZM258.444 14.256L250.83 32.292L249.426 30.618H267.57L266.436 32.292L258.66 14.256H258.444ZM288.468 44.874V6.80402H305.1C309.276 6.80402 312.498 7.79402 314.766 9.77402C317.07 11.754 318.222 14.508 318.222 18.036C318.222 20.376 317.7 22.374 316.656 24.03C315.648 25.686 314.19 26.964 312.282 27.864C310.374 28.728 308.124 29.16 305.532 29.16L306.288 28.134H308.124C309.636 28.134 310.986 28.53 312.174 29.322C313.362 30.114 314.334 31.32 315.09 32.94L320.652 44.874H312.984L307.368 32.508C306.864 31.248 306.09 30.42 305.046 30.024C304.038 29.628 302.814 29.43 301.374 29.43H295.434V44.874H288.468ZM295.434 24.3H303.966C306.414 24.3 308.268 23.796 309.528 22.788C310.824 21.744 311.472 20.232 311.472 18.252C311.472 16.272 310.824 14.778 309.528 13.77C308.268 12.762 306.414 12.258 303.966 12.258H295.434V24.3ZM344.963 45.414C341.903 45.414 339.077 45.036 336.485 44.28C333.929 43.488 331.733 42.408 329.897 41.04L332.057 35.586C333.281 36.45 334.559 37.188 335.891 37.8C337.223 38.376 338.645 38.826 340.157 39.15C341.669 39.438 343.271 39.582 344.963 39.582C347.807 39.582 349.859 39.114 351.119 38.178C352.379 37.242 353.009 36.018 353.009 34.506C353.009 33.174 352.577 32.166 351.713 31.482C350.849 30.762 349.301 30.168 347.069 29.7L340.967 28.458C337.475 27.738 334.865 26.532 333.137 24.84C331.409 23.148 330.545 20.88 330.545 18.036C330.545 15.66 331.175 13.59 332.435 11.826C333.695 10.062 335.459 8.69402 337.727 7.72202C339.995 6.75002 342.641 6.26402 345.665 6.26402C348.365 6.26402 350.867 6.66002 353.171 7.45202C355.475 8.20802 357.401 9.30602 358.949 10.746L356.789 15.93C355.241 14.634 353.549 13.68 351.713 13.068C349.877 12.42 347.825 12.096 345.557 12.096C343.001 12.096 341.003 12.6 339.563 13.608C338.159 14.58 337.457 15.93 337.457 17.658C337.457 18.99 337.889 20.052 338.753 20.844C339.653 21.636 341.165 22.248 343.289 22.68L349.337 23.868C352.937 24.588 355.601 25.776 357.329 27.432C359.057 29.052 359.921 31.248 359.921 34.02C359.921 36.288 359.309 38.286 358.085 40.014C356.861 41.706 355.133 43.038 352.901 44.01C350.669 44.946 348.023 45.414 344.963 45.414Z" fill="#1E90FF"/>
<path d="M81.4464 75.666C81.4464 74.334 81.6864 73.182 82.1664 72.21C82.6584 71.238 83.3604 70.488 84.2724 69.96C85.1844 69.42 86.2704 69.15 87.5304 69.15C88.7784 69.15 89.8584 69.42 90.7704 69.96C91.6824 70.488 92.3844 71.238 92.8764 72.21C93.3804 73.182 93.6324 74.328 93.6324 75.648C93.6324 76.98 93.3804 78.138 92.8764 79.122C92.3844 80.094 91.6824 80.85 90.7704 81.39C89.8584 81.93 88.7784 82.2 87.5304 82.2C86.2704 82.2 85.1844 81.93 84.2724 81.39C83.3724 80.85 82.6764 80.094 82.1844 79.122C81.6924 78.138 81.4464 76.986 81.4464 75.666ZM83.8764 75.666C83.8764 77.094 84.1824 78.21 84.7944 79.014C85.4064 79.818 86.3184 80.22 87.5304 80.22C88.7064 80.22 89.6124 79.818 90.2484 79.014C90.8844 78.21 91.2024 77.094 91.2024 75.666C91.2024 74.226 90.8844 73.11 90.2484 72.318C89.6244 71.526 88.7184 71.13 87.5304 71.13C86.3184 71.13 85.4064 71.526 84.7944 72.318C84.1824 73.11 83.8764 74.226 83.8764 75.666ZM110.068 82.02V69.33H118.438V71.148H112.39V74.748H118.024V76.566H112.39V82.02H110.068ZM153.389 82.02V69.33H161.939V71.148H155.621V74.658H161.525V76.494H155.621V80.184H161.939V82.02H153.389ZM176.498 82.02L181.718 75.072V76.062L176.678 69.33H179.396L183.05 74.388H182.312L185.948 69.33H188.684L183.626 76.062V75.072L188.864 82.02H186.128L182.276 76.728H183.068L179.216 82.02H176.498ZM204.162 82.02V69.33H209.796C211.188 69.33 212.25 69.666 212.982 70.338C213.714 71.01 214.08 71.934 214.08 73.11C214.08 74.274 213.714 75.198 212.982 75.882C212.25 76.566 211.188 76.908 209.796 76.908H206.484V82.02H204.162ZM206.484 75.072H209.526C210.294 75.072 210.87 74.904 211.254 74.568C211.638 74.22 211.83 73.734 211.83 73.11C211.83 72.486 211.638 72.006 211.254 71.67C210.87 71.322 210.294 71.148 209.526 71.148H206.484V75.072ZM230.19 82.02V69.33H238.74V71.148H232.422V74.658H238.326V76.494H232.422V80.184H238.74V82.02H230.19ZM254.935 82.02V69.33H260.479C261.871 69.33 262.945 69.66 263.701 70.32C264.469 70.98 264.853 71.898 264.853 73.074C264.853 73.854 264.679 74.52 264.331 75.072C263.995 75.624 263.509 76.05 262.873 76.35C262.237 76.638 261.487 76.782 260.623 76.782L260.875 76.44H261.487C261.991 76.44 262.441 76.572 262.837 76.836C263.233 77.1 263.557 77.502 263.809 78.042L265.663 82.02H263.107L261.235 77.898C261.067 77.478 260.809 77.202 260.461 77.07C260.125 76.938 259.717 76.872 259.237 76.872H257.257V82.02H254.935ZM257.257 75.162H260.101C260.917 75.162 261.535 74.994 261.955 74.658C262.387 74.31 262.603 73.806 262.603 73.146C262.603 72.486 262.387 71.988 261.955 71.652C261.535 71.316 260.917 71.148 260.101 71.148H257.257V75.162ZM284.25 82.02V71.238H280.056V69.33H290.766V71.238H286.572V82.02H284.25ZM306.447 82.02V69.33H308.769V82.02H306.447ZM330.03 82.2C329.01 82.2 328.068 82.074 327.204 81.822C326.352 81.558 325.62 81.198 325.008 80.742L325.728 78.924C326.136 79.212 326.562 79.458 327.006 79.662C327.45 79.854 327.924 80.004 328.428 80.112C328.932 80.208 329.466 80.256 330.03 80.256C330.978 80.256 331.662 80.1 332.082 79.788C332.502 79.476 332.712 79.068 332.712 78.564C332.712 78.12 332.568 77.784 332.28 77.556C331.992 77.316 331.476 77.118 330.732 76.962L328.698 76.548C327.534 76.308 326.664 75.906 326.088 75.342C325.512 74.778 325.224 74.022 325.224 73.074C325.224 72.282 325.434 71.592 325.854 71.004C326.274 70.416 326.862 69.96 327.618 69.636C328.374 69.312 329.256 69.15 330.264 69.15C331.164 69.15 331.998 69.282 332.766 69.546C333.534 69.798 334.176 70.164 334.692 70.644L333.972 72.372C333.456 71.94 332.892 71.622 332.28 71.418C331.668 71.202 330.984 71.094 330.228 71.094C329.376 71.094 328.71 71.262 328.23 71.598C327.762 71.922 327.528 72.372 327.528 72.948C327.528 73.392 327.672 73.746 327.96 74.01C328.26 74.274 328.764 74.478 329.472 74.622L331.488 75.018C332.688 75.258 333.576 75.654 334.152 76.206C334.728 76.746 335.016 77.478 335.016 78.402C335.016 79.158 334.812 79.824 334.404 80.4C333.996 80.964 333.42 81.408 332.676 81.732C331.932 82.044 331.05 82.2 330.03 82.2ZM351.244 82.02V69.33H359.794V71.148H353.476V74.658H359.38V76.494H353.476V80.184H359.794V82.02H351.244Z" fill="#1E90FF"/>
<path d="M43.3853 61.3543V73.9692L49.4293 76.4848V58.0484C47.5307 59.3505 45.5058 60.458 43.3853 61.3543ZM10.7398 58.0484V76.3589L16.7838 73.8434V61.3543C14.6632 60.4581 12.6383 59.3505 10.7398 58.0484ZM30.0845 64.038C27.2304 64.0395 24.3874 63.6843 21.6215 62.9807V82.02L30.0845 78.4978L38.5474 82.0199V62.9807C35.7815 63.6843 32.9385 64.0395 30.0845 64.038ZM30.0845 0.26001C13.8347 0.26001 0.614502 13.4802 0.614502 29.7301C0.614502 45.9801 13.8347 59.2001 30.0845 59.2001C46.3342 59.2001 59.5546 45.9799 59.5546 29.73C59.5546 13.48 46.3344 0.26001 30.0845 0.26001ZM30.0845 52.9728C17.202 52.9728 6.72126 42.492 6.72126 29.6096C6.72126 16.727 17.202 6.2462 30.0845 6.2462C42.9669 6.2462 53.4477 16.727 53.4477 29.6096C53.4477 42.4922 42.9671 52.9728 30.0845 52.9728ZM30.0845 11.0839C19.8696 11.0839 11.559 19.3944 11.559 29.6096C11.559 39.8247 19.8696 48.1349 30.0845 48.1349C40.2993 48.1349 48.6099 39.8244 48.6099 29.6094C48.6099 19.3944 40.2995 11.0839 30.0845 11.0839ZM37.6985 40.4213L30.0845 36.4185L22.4706 40.4213L23.9247 31.9432L17.7649 25.939L26.2777 24.7019L30.0845 16.988L33.8914 24.7019L42.4042 25.939L36.2444 31.9432L37.6985 40.4213Z" fill="#1E90FF"/>
</svg>
