<svg width="18" height="18" viewBox="0 0 18 18" fill="none" xmlns="http://www.w3.org/2000/svg">
<path d="M4 13.1667C4 13.9417 4 14.3292 4.08518 14.6471C4.31635 15.5098 4.99023 16.1837 5.85295 16.4148C6.17087 16.5 6.55836 16.5 7.33333 16.5H12.5C13.9002 16.5 14.6002 16.5 15.135 16.2275C15.6054 15.9878 15.9878 15.6054 16.2275 15.135C16.5 14.6002 16.5 13.9002 16.5 12.5V5.5C16.5 4.09987 16.5 3.3998 16.2275 2.86503C15.9878 2.39462 15.6054 2.01217 15.135 1.77248C14.6002 1.5 13.9002 1.5 12.5 1.5H7.33333C6.55836 1.5 6.17087 1.5 5.85295 1.58518C4.99023 1.81635 4.31635 2.49022 4.08518 3.35295C4 3.67087 4 4.05836 4 4.83333M9 5.66667L12.3333 9M12.3333 9L9 12.3333M12.3333 9H1.5" stroke="white" stroke-width="2" stroke-linecap="round" stroke-linejoin="round"/>
</svg>
