<svg width="15" height="16" viewBox="0 0 15 16" fill="none" xmlns="http://www.w3.org/2000/svg">
<g clip-path="url(#clip0_0_203)">
<path d="M0.999939 14H2.39994M2.39994 14H9.39994M2.39994 14V3.44721C2.39994 2.59066 2.39994 2.16206 2.55253 1.83491C2.68675 1.54712 2.90077 1.31332 3.1642 1.1667C3.46367 1 3.856 1 4.64008 1H7.16008C7.94415 1 8.33566 1 8.63512 1.1667C8.89853 1.31332 9.11329 1.54712 9.24748 1.83491C9.39994 2.16174 9.39994 2.58982 9.39994 3.4447V7.88235M9.39994 14H13.5999M9.39994 14V7.88235M9.39994 7.88235C9.39994 7.16972 9.39994 6.8136 9.50648 6.53257C9.64858 6.1578 9.92095 5.85988 10.264 5.70465C10.5213 5.58824 10.8475 5.58824 11.4997 5.58824C12.1521 5.58824 12.4786 5.58824 12.7359 5.70465C13.0789 5.85988 13.3512 6.1578 13.4933 6.53257C13.5999 6.8136 13.5999 7.16972 13.5999 7.88235V14M13.5999 14H14.9999M4.49994 6.35294H7.29994M4.49994 4.05882H7.29994" stroke="#1E90FF" stroke-width="1.2" stroke-linecap="round" stroke-linejoin="round"/>
</g>
<defs>
<clipPath id="clip0_0_203">
<rect width="15" height="16" fill="white"/>
</clipPath>
</defs>
</svg>
