<svg width="16" height="16" viewBox="0 0 16 16" fill="none" xmlns="http://www.w3.org/2000/svg">
<path d="M13.75 2.5H12.25V1.75C12.25 1.55109 12.171 1.36032 12.0303 1.21967C11.8897 1.07902 11.6989 1 11.5 1C11.3011 1 11.1103 1.07902 10.9697 1.21967C10.829 1.36032 10.75 1.55109 10.75 1.75V2.5H6.25V1.75C6.25 1.55109 6.17098 1.36032 6.03033 1.21967C5.88968 1.07902 5.69891 1 5.5 1C5.30109 1 5.11032 1.07902 4.96967 1.21967C4.82902 1.36032 4.75 1.55109 4.75 1.75V2.5H3.25C2.65326 2.5 2.08097 2.73705 1.65901 3.15901C1.23705 3.58097 1 4.15326 1 4.75V13.75C1 14.3467 1.23705 14.919 1.65901 15.341C2.08097 15.7629 2.65326 16 3.25 16H13.75C14.3467 16 14.919 15.7629 15.341 15.341C15.7629 14.919 16 14.3467 16 13.75V4.75C16 4.15326 15.7629 3.58097 15.341 3.15901C14.919 2.73705 14.3467 2.5 13.75 2.5ZM14.5 13.75C14.5 13.9489 14.421 14.1397 14.2803 14.2803C14.1397 14.421 13.9489 14.5 13.75 14.5H3.25C3.05109 14.5 2.86032 14.421 2.71967 14.2803C2.57902 14.1397 2.5 13.9489 2.5 13.75V8.5H14.5V13.75ZM14.5 7H2.5V4.75C2.5 4.55109 2.57902 4.36032 2.71967 4.21967C2.86032 4.07902 3.05109 4 3.25 4H4.75V4.75C4.75 4.94891 4.82902 5.13968 4.96967 5.28033C5.11032 5.42098 5.30109 5.5 5.5 5.5C5.69891 5.5 5.88968 5.42098 6.03033 5.28033C6.17098 5.13968 6.25 4.94891 6.25 4.75V4H10.75V4.75C10.75 4.94891 10.829 5.13968 10.9697 5.28033C11.1103 5.42098 11.3011 5.5 11.5 5.5C11.6989 5.5 11.8897 5.42098 12.0303 5.28033C12.171 5.13968 12.25 4.94891 12.25 4.75V4H13.75C13.9489 4 14.1397 4.07902 14.2803 4.21967C14.421 4.36032 14.5 4.55109 14.5 4.75V7Z" fill="#333333"/>
</svg>
