<svg width="14" height="14" viewBox="0 0 14 14" fill="none" xmlns="http://www.w3.org/2000/svg">
<path d="M4.89422 4.38604C4.89337 4.38537 4.89279 4.38489 4.89255 4.38469L4.8925 4.38464L4.89053 4.38297L4.88988 4.38239C4.88976 4.38229 4.89054 4.38299 4.89323 4.38553L4.89404 4.3863C4.88732 4.39609 4.88039 4.40663 4.87332 4.41794C4.8393 4.47238 4.8024 4.54407 4.77115 4.63398C4.7076 4.8168 4.67298 5.05891 4.71625 5.36126C4.7993 5.94161 5.16407 6.71741 6.10705 7.75123L6.10507 7.75316L4.89422 4.38604ZM4.89422 4.38604C4.89437 4.38582 4.89452 4.3856 4.89467 4.38538L4.89422 4.38604ZM8.79725 8.32278L8.79804 8.32246C8.79805 8.32246 8.79726 8.32278 8.79571 8.32357L8.79716 8.32281M8.79725 8.32278C8.79721 8.32279 8.79718 8.3228 8.79716 8.32281M8.79725 8.32278L8.79716 8.32281M8.79725 8.32278L8.79716 8.32281M10.9766 13.2299L10.977 13.2335L10.9766 13.2299ZM10.9766 13.2299C11.3801 13.1632 11.7156 12.9479 11.9754 12.6897L10.9766 13.2299ZM9.51179 9.28053L9.57787 9.2093L9.57791 9.20934L9.58014 9.20689L9.58105 9.2059L9.58112 9.20583L9.58142 9.20549L9.80805 8.96126L9.87767 8.88621L9.87768 8.8862C9.8777 8.88618 9.87771 8.88616 9.87773 8.88614C10.0961 8.65084 10.4349 8.597 10.7283 8.76991L10.8162 8.82172L11.8865 9.4524L11.9709 9.50216C12.4504 9.78478 12.5427 10.4839 12.1882 10.866C12.1882 10.8661 12.1881 10.8661 12.1881 10.8661L12.1217 10.9377L11.3338 11.7869L11.2642 11.862L11.2642 11.862C11.0936 12.0459 10.9248 12.1341 10.7717 12.1496C10.7716 12.1496 10.7716 12.1496 10.7716 12.1496L10.7716 12.1496C10.7712 12.1496 10.7708 12.1497 10.7704 12.1497C9.86294 12.2411 7.46111 12.1676 4.84317 9.34579C2.33907 6.64663 1.92476 4.37717 1.8732 3.39383C1.8732 3.39377 1.8732 3.39371 1.87319 3.39365C1.86106 3.16106 1.95951 2.92014 2.16132 2.70261C2.16132 2.70261 2.16132 2.70261 2.16132 2.70261L2.22776 2.631L3.11253 1.67733L3.18216 1.60227C3.18227 1.60215 3.18239 1.60203 3.1825 1.60191C3.47612 1.28587 3.99917 1.30249 4.29846 1.73587L4.35656 1.82L5.06301 2.84295L5.11859 2.92343C5.36803 3.28464 5.32634 3.76141 5.07024 4.03745L5.00381 4.10905L4.88371 4.23851L4.88288 4.2394L4.88245 4.23987L4.88153 4.24087L4.81728 4.31012L4.82205 4.31477C4.81133 4.32977 4.80006 4.34648 4.78853 4.36493L4.78852 4.36494C4.7508 4.42529 4.71056 4.50372 4.67669 4.60114L4.67669 4.60115C4.60772 4.79958 4.5718 5.05784 4.61726 5.37543C4.70436 5.98409 5.08397 6.77855 6.03533 7.82098L6.03504 7.82126L6.10147 7.89286L6.1711 7.96792L6.17142 7.96761C7.13373 8.98715 7.87877 9.40777 8.46756 9.50566L8.48396 9.40701L8.46757 9.50566C8.77822 9.55729 9.03393 9.51655 9.23082 9.43709L9.23083 9.43708C9.32684 9.39832 9.40333 9.35255 9.46137 9.31042L9.46142 9.31038C9.47798 9.29835 9.49302 9.28662 9.50658 9.27546L9.51179 9.28053ZM4.95518 4.30848L4.9552 4.3085L4.95518 4.30848ZM12.5591 8.46423L12.4712 8.41241L11.401 7.78172L11.3165 7.73197L11.2286 7.68016L11.2273 7.68248C10.5193 7.31377 9.67259 7.42949 9.09527 7.98917L9.09333 7.98729L9.02393 8.06209C9.02386 8.06217 9.02378 8.06226 9.0237 8.06234L8.95727 8.13395L8.77801 8.32714C8.77525 8.32756 8.77218 8.32797 8.76878 8.32833C8.74679 8.33069 8.7103 8.33139 8.65677 8.32249C8.42718 8.2843 7.88111 8.06672 6.95545 7.069C6.03364 6.07533 5.81983 5.47707 5.7805 5.20229C5.76605 5.10131 5.77459 5.04194 5.78065 5.01608L5.85457 4.93638L5.9242 4.86133C5.92443 4.86109 5.92466 4.86084 5.92489 4.8606L5.99064 4.78972L5.9889 4.78803C6.56886 4.09695 6.61101 3.07971 6.13346 2.31497L6.13529 2.31365L6.07984 2.23336C6.0798 2.23329 6.07975 2.23323 6.07971 2.23316L6.02161 2.14904L5.31519 1.12608L5.25961 1.0456C5.25941 1.04531 5.25921 1.04502 5.25901 1.04472L5.20151 0.961469L5.19951 0.96292C4.50983 0.0610635 3.22554 -0.0983106 2.3997 0.705154L2.39783 0.703336L2.3282 0.778389L2.26177 0.849995L1.37699 1.80367L1.30736 1.87872C1.30732 1.87877 1.30728 1.87881 1.30724 1.87885L1.24093 1.95033L1.24228 1.95164C0.930877 2.31441 0.695191 2.79769 0.696571 3.35809L0.69409 3.35822L0.699312 3.45783L0.70456 3.55795L0.705367 3.5579C0.792665 4.83244 1.34493 7.28778 3.92298 10.0979L3.92278 10.0981L3.98896 10.1694C3.98905 10.1695 3.98913 10.1696 3.98921 10.1697C3.98926 10.1697 3.9893 10.1697 3.98934 10.1698L4.05884 10.2447L4.05911 10.2445C6.86147 13.2215 9.537 13.4534 10.7874 13.3517L10.7875 13.3527L10.8875 13.3426L10.8875 13.3426L10.9865 13.3326L10.9862 13.3296C11.4191 13.26 11.7752 13.0299 12.0471 12.7595L12.0485 12.7609L12.1178 12.6862C12.1179 12.6861 12.1181 12.686 12.1182 12.6858C12.1182 12.6858 12.1182 12.6858 12.1182 12.6858L12.1846 12.6142L12.9725 11.765L13.0421 11.69C13.0423 11.6898 13.0424 11.6896 13.0426 11.6894L13.1085 11.6184L13.1068 11.6167C13.9005 10.6728 13.6605 9.18514 12.6423 8.51606L12.6435 8.51397L12.5591 8.46423C12.5591 8.46423 12.5591 8.46423 12.5591 8.46423ZM8.77855 8.40046C8.77592 8.39109 8.77419 8.38095 8.77363 8.37L8.81936 8.42053C8.81462 8.42182 8.80894 8.42317 8.80227 8.42443C8.79894 8.42506 8.79537 8.42566 8.79154 8.42623C8.79111 8.42629 8.79068 8.42635 8.79024 8.42641C8.78985 8.42647 8.78946 8.42653 8.78907 8.42658C8.78864 8.42579 8.78823 8.42499 8.78782 8.42418C8.78725 8.42307 8.7867 8.42195 8.78616 8.42082C8.78316 8.41448 8.78059 8.4077 8.77856 8.40047C8.77855 8.40047 8.77855 8.40046 8.77855 8.40046ZM8.81941 8.42051L8.7736 8.36938C8.77314 8.35954 8.77361 8.34906 8.7752 8.33789C8.7766 8.33672 8.77808 8.33553 8.77953 8.33439L8.83162 8.40576L8.81941 8.42051Z" fill="#F2B340" stroke="#F2B340" stroke-width="0.2"/>
</svg>
