<svg width="41" height="44" viewBox="0 0 41 44" fill="none" xmlns="http://www.w3.org/2000/svg">
<g clip-path="url(#clip0_0_82)">
<path d="M1.25714 29.6326V31.4285C1.25714 34.8149 1.25714 36.5081 2.28472 37.5601C3.31231 38.6122 4.96612 38.6122 8.27376 38.6122H10.905M10.905 38.6122L6.5196 35.0203M10.905 38.6122L6.5196 42.204" stroke="#77BCFF" stroke-width="1.5" stroke-linecap="round" stroke-linejoin="round"/>
<path d="M26.4961 27.8757L27.2951 27.0146L25.3873 25.1594L24.5883 26.0206L26.4961 27.8757ZM29.924 26.652L33.2753 28.627L34.588 26.2923L31.2367 24.3173L29.924 26.652ZM33.9221 32.7215L31.4301 35.4075L33.338 37.2627L35.8299 34.5767L33.9221 32.7215ZM29.9309 36.2681C27.4137 36.5226 20.8456 36.3054 13.7164 28.6211L11.8087 30.4762C19.5784 38.8511 26.99 39.2723 30.1893 38.949L29.9309 36.2681ZM13.7164 28.6211C6.91714 21.2921 5.77662 15.1101 5.63447 12.3986L3.00703 12.543C3.18113 15.864 4.55845 22.6615 11.8087 30.4762L13.7164 28.6211ZM16.129 16.7013L16.6321 16.159L14.7243 14.3038L14.2212 14.8461L16.129 16.7013ZM17.0273 9.40728L14.8154 6.20428L12.667 7.75949L14.8789 10.9625L17.0273 9.40728ZM7.32871 5.51374L4.5754 8.48148L6.48318 10.3367L9.2365 7.36898L7.32871 5.51374ZM15.1751 15.7737C14.2212 14.8461 14.2188 14.8487 14.2188 14.8487L14.2163 14.8514C14.2146 14.8533 14.2129 14.8551 14.2112 14.857C14.2078 14.8608 14.2042 14.8648 14.2005 14.8689C14.1932 14.8772 14.1854 14.8862 14.1771 14.8958C14.1607 14.9152 14.1427 14.9373 14.1234 14.9622C14.0849 15.0121 14.0412 15.0734 13.9955 15.1466C13.9037 15.2934 13.8042 15.4868 13.7199 15.7293C13.5485 16.2224 13.4551 16.8754 13.5718 17.6909C13.8011 19.2931 14.8265 21.4476 17.5057 24.3355L18.4596 23.4079L19.4135 22.4803C16.9093 19.7808 16.2924 18.1183 16.1753 17.3003C16.1188 16.9057 16.1762 16.6977 16.1989 16.6324C16.2116 16.5957 16.22 16.5855 16.2118 16.5986C16.2079 16.6049 16.2 16.6168 16.1867 16.634C16.18 16.6425 16.1721 16.6525 16.1625 16.6637C16.1578 16.6693 16.1526 16.6753 16.147 16.6815C16.1442 16.6847 16.1413 16.6879 16.1383 16.6912L16.1338 16.6962L16.1314 16.6988C16.1314 16.6988 16.129 16.7013 15.1751 15.7737ZM17.5057 24.3355C20.1771 27.2148 22.1945 28.3468 23.7338 28.6027C24.5237 28.734 25.1631 28.6291 25.6472 28.4337C25.8839 28.3382 26.071 28.2259 26.2115 28.1239C26.2817 28.0729 26.3401 28.0246 26.3871 27.9824C26.4108 27.9612 26.4315 27.9415 26.4496 27.9235C26.4587 27.9147 26.4671 27.9061 26.4748 27.8982C26.4787 27.8942 26.4824 27.8903 26.4859 27.8865C26.4876 27.8847 26.4894 27.8829 26.4912 27.8811L26.4936 27.8784C26.4936 27.8784 26.4961 27.8757 25.5422 26.9482C24.5883 26.0206 24.5907 26.018 24.5907 26.018L24.593 26.0154L24.5977 26.0105C24.6009 26.0073 24.6039 26.004 24.6067 26.001C24.6126 25.9951 24.6182 25.9893 24.6235 25.9841C24.634 25.9737 24.6437 25.9647 24.6521 25.9572C24.6688 25.9421 24.6812 25.9324 24.6893 25.9266C24.7058 25.9146 24.704 25.9187 24.6817 25.9277C24.6479 25.9414 24.4884 25.999 24.1557 25.9437C23.4495 25.8262 21.9258 25.1882 19.4135 22.4803L18.4596 23.4079L17.5057 24.3355ZM14.8154 6.20428C13.0374 3.62968 9.47962 3.19532 7.32871 5.51374L9.2365 7.36898C10.1536 6.38042 11.7682 6.45807 12.667 7.75949L14.8154 6.20428ZM5.63447 12.3986C5.59688 11.6815 5.90187 10.9633 6.48318 10.3367L4.5754 8.48148C3.63543 9.49465 2.921 10.9021 3.00703 12.543L5.63447 12.3986ZM31.4301 35.4075C30.9407 35.9351 30.4287 36.2178 29.9309 36.2681L30.1893 38.949C31.4998 38.8165 32.5604 38.101 33.338 37.2627L31.4301 35.4075ZM16.6321 16.159C18.3294 14.3296 18.4496 11.4666 17.0273 9.40728L14.8789 10.9625C15.6194 12.0348 15.5059 13.4614 14.7243 14.3038L16.6321 16.159ZM33.2753 28.627C34.7151 29.4755 34.997 31.5629 33.9221 32.7215L35.8299 34.5767C38.1189 32.1093 37.4523 27.9803 34.588 26.2923L33.2753 28.627ZM27.2951 27.0146C27.9711 26.2858 29.0247 26.122 29.924 26.652L31.2367 24.3173C29.3097 23.1818 26.9199 23.5074 25.3873 25.1594L27.2951 27.0146Z" fill="#1E90FF"/>
<path d="M24 9.01367L24 16.1973" stroke="#1E90FF" stroke-width="2" stroke-linecap="round"/>
<path d="M24.3051 16.1973H31.0166" stroke="#1E90FF" stroke-width="2" stroke-linecap="round"/>
<path d="M37 16.0137H41" stroke="#77BCFF" stroke-width="2" stroke-linecap="round"/>
<path d="M24 4V6.7987e-08" stroke="#77BCFF" stroke-width="2.2" stroke-linecap="round"/>
<path d="M35 10.0068L38.4434 7.97144" stroke="#77BCFF" stroke-width="2.2" stroke-linecap="round"/>
<path d="M30 5.198L31.9648 1.71382" stroke="#77BCFF" stroke-width="2.2" stroke-linecap="round"/>
</g>
<defs>
<clipPath id="clip0_0_82">
<rect width="41" height="44" fill="white"/>
</clipPath>
</defs>
</svg>
