<svg width="68" height="57" viewBox="0 0 68 57" fill="none" xmlns="http://www.w3.org/2000/svg">
<path d="M66.1547 28.8265C65.9507 28.7861 62.2919 28.0689 57.3821 27.7022C57.4059 27.2453 57.4185 26.7852 57.4185 26.3222C57.4185 12.0149 45.928 0.375 31.8045 0.375C17.6809 0.375 6.19027 12.0149 6.19027 26.3222C6.19027 29.3387 6.70292 32.2356 7.64117 34.931C4.36628 35.2102 1.98603 35.6766 1.84529 35.7047L0 36.0712L0.803706 37.7934C1.05148 38.3244 6.95791 50.8415 14.356 54.628C17.0258 55.9943 19.5228 56.6872 21.7779 56.6875C25.1365 56.6875 27.8878 55.1506 29.6184 52.3356C31.8887 55.0836 35.0841 56.5643 38.8656 56.5643C41.878 56.5643 45.227 55.6322 48.8194 53.7937C58.8207 48.6749 66.8589 31.6383 67.1963 30.9154L68 29.1932L66.1547 28.8265ZM52.9074 17.885C51.942 17.0843 50.8301 16.3349 49.5783 15.6482C48.0291 14.7981 46.3152 14.0742 44.4808 13.4813C43.8955 11.6227 43.1809 9.88648 42.3415 8.31678C41.6636 7.04889 40.9239 5.92256 40.1333 4.94458C45.9544 7.28034 50.602 11.9884 52.9074 17.885ZM54.3026 24.8395H46.3244C46.2404 22.1134 45.9237 19.4659 45.3941 16.9733C50.1482 18.8552 53.4954 21.6727 54.3026 24.8395ZM33.2682 3.53122C36.3944 4.34912 39.1758 7.74002 41.0336 12.556C38.5729 12.0195 35.9596 11.6988 33.2682 11.6135V3.53122ZM33.2682 14.5799C36.4154 14.6897 39.4113 15.1501 42.1078 15.8849C42.8331 18.6166 43.2876 21.6513 43.3961 24.8393H33.2682V14.5799ZM33.2682 27.8049H43.3961C43.3916 27.9359 43.3867 28.0669 43.3812 28.1974C40.94 28.6562 38.8304 29.3363 37.0715 30.2365C35.6671 30.9551 34.399 31.7222 33.2682 32.5352V27.8049ZM30.3407 3.53122V11.6135C27.6494 11.6988 25.036 12.0195 22.5752 12.556C24.4331 7.74002 27.2146 4.34912 30.3407 3.53122ZM30.3407 14.5799V24.8395H20.2128C20.3211 21.6515 20.7756 18.6166 21.5011 15.8849C24.1976 15.1501 27.1937 14.6899 30.3407 14.5799ZM23.4754 4.94492C22.6848 5.9229 21.9452 7.04923 21.2673 8.31712C20.428 9.88665 19.7134 11.6231 19.1281 13.4815C17.2934 14.0745 15.5796 14.7983 14.0301 15.6485C12.7784 16.3352 11.6666 17.0845 10.7012 17.8852C13.0069 11.9882 17.6544 7.28034 23.4754 4.94492ZM18.2148 16.9731C17.6852 19.4659 17.3685 22.1132 17.2845 24.8395H9.30612C10.1133 21.6727 13.4607 18.8552 18.2148 16.9731ZM17.2845 27.8049C17.363 30.3478 17.6431 32.8222 18.1102 35.1666C17.6087 35.0819 17.0897 35.0088 16.5529 34.9485C12.6879 33.1026 10.0155 30.5886 9.30612 27.8049H17.2845ZM26 52C25.0292 53.0852 23.9716 53.7218 21.7789 53.7218C19.9865 53.7216 17.9327 53.136 15.676 51.9811C10.6949 49.4316 6.20134 41.7843 4.34817 38.2952C6.19396 38.0277 9.14843 37.6895 12.2844 37.6895C16.4591 37.6895 19.7088 38.2693 21.9435 39.413C23.957 40.4433 25.4978 41.5967 26.5549 42.8394C26.3447 45.0012 26.4807 46.8304 27.5 49L12.9725 42.3648L26 52ZM24.4849 37.4363C24.0937 37.2071 23.6876 36.9833 23.2634 36.7661C22.6621 36.4583 22.004 36.1869 21.2961 35.9484C20.6902 33.4318 20.3107 30.6809 20.2128 27.8047H30.3407V35.0581C29.4709 35.9713 28.7452 36.9299 28.1646 37.9317C26.9033 37.821 25.6733 37.6543 24.4849 37.4363ZM47.4994 51.1466C44.3201 52.7737 41.4151 53.5986 38.8656 53.5986C35.4641 53.5986 33.4115 52.7145 32 51L52.174 37.2246L30.5476 48.3933C30.5432 48.3844 30.0044 47.5088 30 47.5C27.1061 41.6965 30.5041 36.9197 38.3915 32.8834C41.5401 31.2721 46.0897 30.455 51.9141 30.455C56.7115 30.455 61.2152 31.0292 63.6688 31.4089C61.3667 35.8455 54.8404 47.3895 47.4994 51.1466Z" fill="#646464"/>
</svg>
