<svg width="1365" height="337" viewBox="0 0 1365 337" fill="none" xmlns="http://www.w3.org/2000/svg">
<path fill-rule="evenodd" clip-rule="evenodd" d="M174.092 336.626H172.464L306.195 20.2477C306.742 20.238 307.289 20.228 307.837 20.218L174.092 336.626ZM188.26 336.626H186.632L320.486 19.9591C321.033 19.9467 321.581 19.9342 322.13 19.9215L188.26 336.626ZM202.429 336.626H200.8L334.805 19.6016C335.354 19.5865 335.903 19.5713 336.453 19.556L202.429 336.626ZM216.597 336.626H214.968L349.154 19.1732C349.704 19.1554 350.255 19.1375 350.805 19.1194L216.597 336.626ZM230.765 336.626H229.136L363.534 18.672C364.085 18.6513 364.637 18.6305 365.189 18.6096L230.765 336.626ZM244.933 336.626H243.304L377.946 18.0955C378.498 18.0719 379.051 18.0482 379.604 18.0243L244.933 336.626ZM259.101 336.626H257.473L392.39 17.4414C392.944 17.415 393.498 17.3885 394.052 17.3621L259.101 336.626ZM273.269 336.626H271.641L406.849 16.7543C407.403 16.7281 407.956 16.702 408.511 16.6758L273.269 336.626ZM287.437 336.626H285.809L421.305 16.0741C421.858 16.0482 422.412 16.0223 422.966 15.9964L287.437 336.626ZM301.605 336.626H299.977L435.757 15.401C436.311 15.3754 436.864 15.3497 437.418 15.3241L301.605 336.626ZM315.773 336.626H314.145L450.207 14.7352C450.76 14.7099 451.314 14.6845 451.867 14.6592L315.773 336.626ZM329.942 336.626H328.313L464.653 14.077C465.206 14.0519 465.76 14.0269 466.313 14.0019L329.942 336.626ZM344.11 336.626H342.481L479.096 13.4266C479.649 13.4018 480.203 13.3771 480.756 13.3523L344.11 336.626ZM358.278 336.626H356.649L493.536 12.7842C494.089 12.7598 494.642 12.7353 495.195 12.7109L358.278 336.626ZM372.446 336.626H370.817L507.972 12.1502C508.525 12.1261 509.078 12.102 509.631 12.0779L372.446 336.626ZM386.614 336.626H384.985L522.404 11.5249C522.957 11.5011 523.51 11.4773 524.063 11.4536L386.614 336.626ZM400.782 336.626H399.154L536.833 10.9085C537.386 10.8851 537.938 10.8616 538.491 10.8382L400.782 336.626ZM414.95 336.626H413.322L551.258 10.3015C551.81 10.2784 552.363 10.2553 552.915 10.2323L414.95 336.626ZM429.118 336.626H427.49L565.678 9.70417C566.231 9.68148 566.783 9.65881 567.335 9.63617L429.118 336.626ZM443.286 336.626H441.658L580.094 9.11703C580.647 9.09473 581.199 9.07246 581.751 9.05021L443.286 336.626ZM457.454 336.626H455.826L594.506 8.54048C595.058 8.5186 595.61 8.49674 596.162 8.47491L457.454 336.626ZM471.623 336.626H469.994L608.913 7.97502C609.465 7.95357 610.017 7.93215 610.569 7.91076L471.623 336.626ZM485.791 336.626H484.162L623.316 7.42119C623.867 7.40019 624.419 7.37923 624.971 7.3583L485.791 336.626ZM499.959 336.626H498.33L637.713 6.87956C638.264 6.85905 638.816 6.83857 639.367 6.81812L499.959 336.626ZM514.127 336.626H512.498L652.104 6.35079C652.656 6.33078 653.207 6.31081 653.758 6.29087L514.127 336.626ZM528.295 336.626H526.667L666.49 5.83557C667.041 5.81609 667.593 5.79665 668.143 5.77726L528.295 336.626ZM542.463 336.626H540.835L680.87 5.33468C681.421 5.31577 681.972 5.2969 682.522 5.27807L542.463 336.626ZM556.631 336.626H555.003L695.243 4.84898C695.794 4.83066 696.345 4.81239 696.895 4.79417L556.631 336.626ZM570.799 336.626H569.171L709.61 4.37942C710.161 4.36174 710.711 4.34411 711.261 4.32653L570.799 336.626ZM584.968 336.626H583.339L723.969 3.92706C724.52 3.91006 725.07 3.89311 725.619 3.87622L584.968 336.626ZM599.136 336.626H597.507L738.321 3.4931C738.871 3.47683 739.421 3.46061 739.97 3.44446L599.136 336.626ZM613.304 336.626H611.675L752.664 3.07888C753.214 3.06339 753.763 3.04796 754.312 3.0326L613.304 336.626ZM627.472 336.626H625.843L766.998 2.68592C767.548 2.67127 768.097 2.6567 768.645 2.64219L627.472 336.626ZM641.64 336.626H640.011L781.323 2.31595C781.872 2.30223 782.421 2.28857 782.969 2.27499L641.64 336.626ZM655.808 336.626H654.18L795.637 1.97099C796.185 1.95826 796.734 1.94561 797.281 1.93304L655.808 336.626ZM669.976 336.626H668.348L809.939 1.65333C810.488 1.6417 811.035 1.63015 811.582 1.61868L669.976 336.626ZM684.144 336.626H682.516L824.229 1.36568C824.777 1.35526 825.324 1.34493 825.87 1.33468L684.144 336.626ZM698.312 336.626H696.684L838.504 1.11125C839.052 1.10217 839.599 1.09318 840.144 1.08429L698.312 336.626ZM712.481 336.626H710.852L852.764 0.893833C853.311 0.886255 853.857 0.878782 854.402 0.871415L712.481 336.626ZM726.649 336.626H725.02L867.007 0.718073C867.553 0.712194 868.098 0.706431 868.643 0.700784L726.649 336.626ZM740.817 336.626H739.188L881.229 0.589663C881.775 0.585728 882.319 0.581921 882.863 0.578243L740.817 336.626ZM754.985 336.626H753.356L895.428 0.515759C895.973 0.514076 896.517 0.512539 897.059 0.511146L754.985 336.626ZM769.153 336.626H767.524L909.602 0.502713C910.145 0.50305 910.688 0.503442 911.23 0.503889L769.153 336.626ZM783.321 336.626H781.693L923.761 0.524093C924.304 0.525394 924.846 0.52675 925.388 0.52816L783.321 336.626ZM797.489 336.626H795.861L937.91 0.570547C938.452 0.572806 938.994 0.575119 939.535 0.577485L797.489 336.626ZM811.657 336.626H810.029L952.048 0.641892C952.59 0.645102 953.131 0.648365 953.672 0.651679L811.657 336.626ZM825.825 336.626H824.197L966.175 0.737957C966.717 0.742112 967.258 0.746318 967.798 0.750576L825.825 336.626ZM839.994 336.626H838.365L980.292 0.858586C980.833 0.863681 981.374 0.868825 981.914 0.87402L839.994 336.626ZM854.162 336.626H852.533L994.399 1.00364C994.94 1.00967 995.48 1.01575 996.02 1.02187L854.162 336.626ZM868.33 336.626H866.701L1008.5 1.17299C1009.04 1.17995 1009.58 1.18696 1010.12 1.19401L868.33 336.626ZM882.498 336.626H880.869L1022.58 1.36653C1023.12 1.37441 1023.66 1.38235 1024.2 1.39032L882.498 336.626ZM896.666 336.626H895.037L1036.66 1.58416C1037.2 1.59297 1037.74 1.60182 1038.28 1.61072L896.666 336.626ZM910.834 336.626H909.206L1050.72 1.82581C1051.26 1.83554 1051.8 1.84531 1052.34 1.85512L910.834 336.626ZM925.002 336.626H923.374L1064.78 2.09142C1065.32 2.10207 1065.86 2.11276 1066.39 2.12349L925.002 336.626ZM939.17 336.626H937.542L1078.83 2.38096C1079.36 2.39252 1079.9 2.40413 1080.44 2.41577L939.17 336.626ZM953.338 336.626H951.71L1092.86 2.6944C1093.4 2.70688 1093.94 2.7194 1094.47 2.73196L953.338 336.626ZM967.506 336.626H965.878L1106.89 3.03176C1107.42 3.04516 1107.96 3.0586 1108.5 3.07207L967.506 336.626ZM981.675 336.626H980.046L1120.9 3.39307C1121.44 3.40739 1121.98 3.42174 1122.51 3.43613L981.675 336.626ZM995.843 336.626H994.214L1134.91 3.77839C1135.44 3.79363 1135.98 3.80891 1136.52 3.82422L995.843 336.626ZM1010.01 336.626H1008.38L1148.9 4.18781C1149.44 4.20398 1149.98 4.22018 1150.51 4.23641L1010.01 336.626ZM1024.18 336.626H1022.55L1162.89 4.62146C1163.42 4.63857 1163.96 4.6557 1164.49 4.67286L1024.18 336.626ZM1038.35 336.626H1036.72L1176.86 5.07952C1177.4 5.09757 1177.93 5.11565 1178.47 5.13374L1038.35 336.626ZM1052.52 336.626H1050.89L1190.83 5.56221C1191.36 5.58122 1191.9 5.60024 1192.43 5.61928L1052.52 336.626ZM1066.68 336.626H1065.05L1204.78 6.0698C1205.31 6.08978 1205.85 6.10976 1206.38 6.12976L1066.68 336.626ZM1080.85 336.626H1079.22L1218.72 6.60265C1219.26 6.6236 1219.79 6.64456 1220.32 6.66553L1080.85 336.626ZM1095.02 336.626H1093.39L1232.65 7.16117C1233.19 7.18313 1233.72 7.20508 1234.25 7.22704L1095.02 336.626ZM1109.19 336.626H1107.56L1246.58 7.74592C1247.11 7.7689 1247.64 7.79187 1248.17 7.81483L1109.19 336.626ZM1123.36 336.626H1121.73L1260.48 8.35754C1261.02 8.38158 1261.55 8.4056 1262.08 8.4296L1123.36 336.626ZM1137.52 336.626H1135.9L1274.38 8.99689C1274.92 9.02203 1275.45 9.04713 1275.98 9.0722L1137.52 336.626ZM1151.69 336.626H1150.06L1288.27 9.66506C1288.8 9.69135 1289.33 9.71759 1289.86 9.74377L1151.69 336.626ZM1165.86 336.626H1164.23L1302.14 10.3635C1302.68 10.391 1303.21 10.4184 1303.73 10.4458L1165.86 336.626ZM1180.03 336.626H1178.4L1316 11.0941C1316.54 11.123 1317.07 11.1517 1317.59 11.1803L1180.03 336.626ZM1194.2 336.626H1192.57L1329.84 11.8599C1330.38 11.8903 1330.91 11.9204 1331.44 11.9503L1194.2 336.626ZM1208.36 336.626H1206.74L1343.67 12.6654C1344.21 12.6977 1344.74 12.7296 1345.26 12.7609L1208.36 336.626ZM1222.53 336.626H1220.9L1357.48 13.5202C1358.04 13.5562 1358.57 13.5904 1359.06 13.6226L1222.53 336.626ZM1236.7 336.626H1235.07L1364.76 29.8061V33.6589L1236.7 336.626ZM1250.87 336.626H1249.24L1364.76 63.324V67.1765L1250.87 336.626ZM1265.04 336.626H1263.41L1364.76 96.8424V100.695L1265.04 336.626ZM1279.2 336.626H1277.58L1364.76 130.361V134.213L1279.2 336.626ZM1293.37 336.626H1291.74L1364.76 163.88V167.732L1293.37 336.626ZM1307.54 336.626H1305.91L1364.76 197.398V201.251L1307.54 336.626ZM1321.71 336.626H1320.08L1364.76 230.917V234.769L1321.71 336.626ZM1335.88 336.626H1334.25L1364.76 264.435V268.288L1335.88 336.626ZM1350.05 336.626H1348.42L1364.76 297.954V301.806L1350.05 336.626ZM1364.21 336.626H1362.58L1364.76 331.471V335.324L1364.21 336.626ZM293.572 20.4472L159.924 336.626H158.296L291.934 20.4693C292.479 20.4621 293.025 20.4547 293.572 20.4472ZM277.7 20.6255C278.244 20.6207 278.789 20.6158 279.334 20.6108L145.756 336.626H144.128L277.7 20.6255ZM263.492 20.7177C264.036 20.7154 264.58 20.7129 265.124 20.7103L131.588 336.626H129.959L263.492 20.7177ZM249.312 20.7475C249.854 20.7475 250.397 20.7474 250.94 20.7472L117.42 336.626H115.791L249.312 20.7475ZM235.157 20.716C235.698 20.7183 236.24 20.7206 236.783 20.7227L103.252 336.626H101.623L235.157 20.716ZM221.028 20.6244C221.568 20.629 222.109 20.6335 222.65 20.6379L89.0836 336.626H87.4552L221.028 20.6244ZM206.923 20.4736C207.462 20.4805 208.002 20.4873 208.543 20.4939L74.9155 336.626H73.287L206.923 20.4736ZM192.843 20.2646C193.382 20.2737 193.921 20.2827 194.461 20.2916L60.7475 336.626H59.119L192.843 20.2646ZM178.788 19.9981C179.325 20.0094 179.863 20.0206 180.402 20.0317L46.5793 336.626H44.9508L178.788 19.9981ZM164.757 19.6747C165.293 19.6881 165.83 19.7015 166.368 19.7147L32.4112 336.626H30.7827L164.757 19.6747ZM150.749 19.2948C151.284 19.3104 151.821 19.3259 152.358 19.3413L18.2431 336.626H16.6146L150.749 19.2948ZM136.765 18.8586C137.299 18.8764 137.835 18.8941 138.371 18.9116L4.07501 336.626H2.44651L136.765 18.8586ZM122.805 18.3663C123.338 18.3862 123.873 18.4061 124.409 18.4258L0 312.748V308.896L122.805 18.3663ZM108.869 17.8177C109.401 17.8398 109.935 17.8617 110.47 17.8837L0 279.23V275.377L108.869 17.8177ZM94.9569 17.2123C95.4876 17.2365 96.0203 17.2607 96.5547 17.2848L0 245.711V241.859L94.9569 17.2123ZM81.069 16.5492C81.5985 16.5756 82.1302 16.602 82.6641 16.6284L0 212.193V208.34L81.069 16.5492ZM67.2062 15.827C67.7342 15.8557 68.2649 15.8844 68.7983 15.9131L0 178.674V174.821L67.2062 15.827ZM53.3692 15.0436C53.8955 15.0747 54.4252 15.1057 54.9583 15.1369L0 145.156V141.303L53.3692 15.0436ZM39.5595 14.1957C40.0834 14.2291 40.6121 14.2628 41.1454 14.2966L0 111.637V107.784L39.5595 14.1957ZM25.7796 13.2774C26.2997 13.3135 26.8271 13.35 27.3618 13.3868L0 78.1186V74.2659L25.7796 13.2774ZM12.034 12.2779C12.5445 12.3168 13.0705 12.3567 13.6119 12.3975L0 44.6001V40.7475L12.034 12.2779Z" fill="#1E90FF" fill-opacity="0.2"/>
</svg>
