<svg width="24" height="25" viewBox="0 0 24 25" fill="none" xmlns="http://www.w3.org/2000/svg">
<path d="M12 0.0976562C5.39999 0.0976562 0 5.50729 0 12.17C0 18.194 4.39199 23.194 10.128 24.0977V15.6639H7.07999V12.17H10.128V9.50729C10.128 6.48319 11.916 4.82054 14.664 4.82054C15.972 4.82054 17.34 5.04946 17.34 5.04946V8.02536H15.828C14.34 8.02536 13.872 8.95307 13.872 9.9049V12.17H17.208L16.668 15.6639H13.872V24.0977C16.6997 23.6492 19.2746 22.2007 21.1319 20.0133C22.9891 17.8261 24.0064 15.0442 24 12.17C24 5.50729 18.6 0.0976562 12 0.0976562Z" fill="white"/>
</svg>
