<svg width="23" height="24" viewBox="0 0 23 24" fill="none" xmlns="http://www.w3.org/2000/svg">
<path fill-rule="evenodd" clip-rule="evenodd" d="M0.67428 3.82659C0 5.14994 0 6.88231 0 10.347V13.234C0 16.6988 0 18.4312 0.67428 19.7544C1.2674 20.9185 2.2138 21.8649 3.37786 22.458C4.70121 23.1323 6.43358 23.1323 9.8983 23.1323H12.7853C16.25 23.1323 17.9824 23.1323 19.3057 22.458C20.4698 21.8649 21.4162 20.9185 22.0093 19.7544C22.6836 18.4312 22.6836 16.6988 22.6836 13.234V10.347C22.6836 6.88231 22.6836 5.14994 22.0093 3.82659C21.4162 2.66253 20.4698 1.71613 19.3057 1.12301C17.9824 0.44873 16.25 0.44873 12.7853 0.44873H9.8983C6.43358 0.44873 4.70121 0.44873 3.37786 1.12301C2.2138 1.71613 1.2674 2.66253 0.67428 3.82659ZM12.7853 2.51088H9.8983C8.13191 2.51088 6.93113 2.51249 6.00299 2.58831C5.0989 2.66218 4.63657 2.79606 4.31405 2.96039C3.53801 3.35581 2.90708 3.98674 2.51166 4.76278C2.34733 5.0853 2.21345 5.54763 2.13958 6.45172C2.06376 7.37986 2.06215 8.58064 2.06215 10.347V13.234C2.06215 15.0005 2.06376 16.2012 2.13958 17.1293C2.21345 18.0335 2.34733 18.4958 2.51166 18.8183C2.90708 19.5943 3.53801 20.2252 4.31405 20.6206C4.63657 20.785 5.0989 20.9189 6.00299 20.9928C6.93113 21.0685 8.13191 21.0702 9.8983 21.0702H12.7853C14.5517 21.0702 15.7524 21.0685 16.6806 20.9928C17.5847 20.9189 18.0471 20.785 18.3696 20.6206C19.1456 20.2252 19.7765 19.5943 20.1719 18.8183C20.3363 18.4958 20.4702 18.0335 20.544 17.1293C20.6198 16.2012 20.6215 15.0005 20.6215 13.234V10.347C20.6215 8.58064 20.6198 7.37986 20.544 6.45172C20.4702 5.54763 20.3363 5.0853 20.1719 4.76278C19.7765 3.98674 19.1456 3.35581 18.3696 2.96039C18.0471 2.79606 17.5847 2.66218 16.6806 2.58831C15.7524 2.51249 14.5517 2.51088 12.7853 2.51088ZM11.3418 17.9768C14.7584 17.9768 17.5282 15.2071 17.5282 11.7904C17.5282 8.37371 14.7584 5.60395 11.3418 5.60395C7.92508 5.60395 5.15532 8.37371 5.15532 11.7904C5.15532 15.2071 7.92508 17.9768 11.3418 17.9768ZM11.3418 15.9147C13.6195 15.9147 15.4661 14.0681 15.4661 11.7904C15.4661 9.51261 13.6195 7.6661 11.3418 7.6661C9.06398 7.6661 7.21747 9.51261 7.21747 11.7904C7.21747 14.0681 9.06398 15.9147 11.3418 15.9147ZM16.4972 5.60421C16.4972 5.03477 16.9588 4.57314 17.5283 4.57314C18.0977 4.57314 18.5593 5.03477 18.5593 5.60421C18.5593 6.17365 18.0977 6.63528 17.5283 6.63528C16.9588 6.63528 16.4972 6.17365 16.4972 5.60421Z" fill="white"/>
</svg>
