<svg width="64" height="64" viewBox="0 0 64 64" fill="none" xmlns="http://www.w3.org/2000/svg">
<path d="M59.1304 29.2174C59.1304 27.7463 58.7333 26.3099 57.9918 25.0435C59.884 21.8125 59.391 17.6725 56.6854 14.9669C56.1419 14.4234 55.5358 13.9665 54.8848 13.5979C54.9324 13.2413 54.9565 12.8823 54.9565 12.5219C54.9565 7.91888 51.2116 4.174 46.6086 4.174C46.2395 4.174 45.8718 4.199 45.5066 4.24888C44.0533 1.6735 41.3033 0 38.2609 0C35.7694 0 33.5309 1.09863 32 2.835C30.4691 1.09863 28.2306 0 25.7391 0C22.6968 0 19.9468 1.6735 18.4934 4.24875C13.5346 3.57175 9.0435 7.45888 9.0435 12.5218C9.0435 12.8821 9.06775 13.2411 9.11525 13.5977C8.46425 13.9662 7.85813 14.4234 7.31463 14.9668C4.60963 17.6716 4.11538 21.8114 6.00825 25.0434C5.26675 26.3097 4.86963 27.7461 4.86963 29.2173C4.86963 32.2596 6.54313 35.0096 9.11838 36.463C9.1175 36.4694 9.117 36.4757 9.11613 36.482C8.4615 41.5094 12.3888 45.9129 17.3914 45.9129C17.7605 45.9129 18.1283 45.8879 18.4934 45.838C19.2286 47.141 20.2961 48.2124 21.5653 48.9538V53.5651C21.5653 59.319 26.2463 64 32 64C37.7538 64 42.4348 59.319 42.4348 53.5653V48.9539C43.7038 48.2126 44.7713 47.141 45.5066 45.8382C45.8719 45.888 46.2395 45.9131 46.6086 45.9131C51.6734 45.9131 55.5569 41.4225 54.8816 36.4632C57.457 35.0098 59.1304 32.2598 59.1304 29.2174ZM21.7339 42.8231C21.4876 41.9129 20.6613 41.2811 19.7193 41.2811C18.9005 41.2811 18.6345 41.7391 17.3914 41.7391C11.8775 41.7391 11.8718 33.3913 17.3914 33.3913C18.5439 33.3913 19.4784 32.4569 19.4784 31.3043C19.4784 30.1518 18.544 29.2173 17.3914 29.2173C14.6739 29.2173 12.2563 30.5231 10.7309 32.5395C9.69538 31.7714 9.0435 30.5516 9.0435 29.2173C9.0435 27.9205 9.63538 26.9913 10.1319 26.4403C10.8471 25.6464 10.8471 24.4405 10.1319 23.6466C7.64663 20.8874 9.72338 16.6955 13.2174 16.6955C14.3323 16.6955 15.3805 17.1297 16.1688 17.918C16.9836 18.733 18.3051 18.733 19.1201 17.918C19.9351 17.103 19.9351 15.7816 19.1201 14.9666C17.5435 13.3899 15.4471 12.5215 13.2174 12.5215C13.2174 10.22 15.0898 8.34762 17.3913 8.34762C17.9115 8.34762 18.433 8.45112 18.9416 8.65537C20.1003 9.1205 21.4075 8.46975 21.7339 7.26375C22.2261 5.44438 23.8731 4.17362 25.7391 4.17362C28.0406 4.17362 29.913 6.046 29.913 8.3475V21.0793C25.1559 22.0487 21.5651 26.2649 21.5651 31.3041C21.5651 32.4566 22.4995 33.3911 23.6521 33.3911C24.8048 33.3911 25.7391 32.4567 25.7391 31.3041C25.7391 28.5834 27.484 26.2638 29.913 25.4023V41.739C29.913 44.0405 28.0406 45.9129 25.7391 45.9129C23.8731 45.913 22.2261 44.6424 21.7339 42.8231ZM32 59.8261C29.2793 59.8261 26.9596 58.0812 26.0981 55.6522H37.9018C37.0404 58.0812 34.7208 59.8261 32 59.8261ZM38.2609 51.4782H25.7391V50.087C28.2306 50.087 30.4691 48.9884 32 47.2519C33.5309 48.9884 35.7694 50.087 38.2609 50.087V51.4782ZM53.8681 26.4404C54.3646 26.9915 54.9565 27.9207 54.9565 29.2174C54.9565 30.5518 54.3046 31.7715 53.2691 32.5396C51.7439 30.5232 49.3261 29.2174 46.6086 29.2174C45.4561 29.2174 44.5216 30.1518 44.5216 31.3044C44.5216 32.4569 45.456 33.3914 46.6086 33.3914C52.102 33.3914 52.0993 41.7393 46.6086 41.7393C46.0884 41.7393 45.5669 41.6357 45.0583 41.4315C43.8996 40.9665 42.5925 41.617 42.266 42.8231C41.7738 44.6425 40.1268 45.9132 38.2608 45.9132C35.9593 45.9132 34.0869 44.0409 34.0869 41.7394V25.4024C36.516 26.2639 38.2608 28.5836 38.2608 31.3043C38.2608 32.4567 39.1951 33.3913 40.3478 33.3913C41.5004 33.3913 42.4348 32.4569 42.4348 31.3043C42.4348 26.2651 38.8441 22.049 34.0869 21.0794V8.34787C34.0869 6.04637 35.9593 4.174 38.2608 4.174C40.1268 4.174 41.7738 5.44462 42.266 7.264C42.5921 8.46912 43.8988 9.12125 45.0583 8.65563C45.5668 8.4515 46.0884 8.348 46.6086 8.348C48.9101 8.348 50.7825 10.2204 50.7825 12.5219C48.5528 12.5219 46.4564 13.3901 44.8798 14.967C44.0648 15.782 44.0648 17.1034 44.8798 17.9184C45.6946 18.7334 47.0161 18.7334 47.8311 17.9184C48.6196 17.1301 49.6676 16.6959 50.7825 16.6959C54.2928 16.6959 56.3461 20.8958 53.868 23.6469C53.1529 24.4406 53.1529 25.6464 53.8681 26.4404Z" fill="#646464"/>
</svg>
