<svg width="490" height="80" viewBox="0 0 490 80" fill="none" xmlns="http://www.w3.org/2000/svg">
<path d="M85.5846 73.0977V61.8177H90.1766C91.3606 61.8177 92.2726 62.1057 92.9126 62.6817C93.5526 63.247 93.8726 64.0363 93.8726 65.0497C93.8726 66.0417 93.5526 66.831 92.9126 67.4177C92.2726 67.9937 91.3606 68.2817 90.1766 68.2817H86.9126V73.0977H85.5846ZM86.9126 67.1777H90.0486C90.8699 67.1777 91.4886 66.991 91.9046 66.6177C92.3312 66.2443 92.5446 65.7217 92.5446 65.0497C92.5446 64.367 92.3312 63.839 91.9046 63.4657C91.4886 63.0923 90.8699 62.9057 90.0486 62.9057H86.9126V67.1777ZM95.8624 73.0977V65.0657H97.1584V73.0977H95.8624ZM95.7024 63.2417V61.7857H97.3024V63.2417H95.7024ZM102.971 73.2417C102.203 73.2417 101.531 73.0763 100.955 72.7457C100.39 72.4043 99.9523 71.9243 99.6429 71.3057C99.3336 70.6763 99.1789 69.935 99.1789 69.0817C99.1789 68.2177 99.3336 67.4763 99.6429 66.8577C99.9523 66.239 100.39 65.7643 100.955 65.4337C101.531 65.0923 102.203 64.9217 102.971 64.9217C103.75 64.9217 104.422 65.0923 104.987 65.4337C105.563 65.7643 106.006 66.239 106.315 66.8577C106.635 67.4763 106.795 68.2177 106.795 69.0817C106.795 69.935 106.635 70.6763 106.315 71.3057C106.006 71.9243 105.563 72.4043 104.987 72.7457C104.422 73.0763 103.75 73.2417 102.971 73.2417ZM102.971 72.1857C103.739 72.1857 104.347 71.9243 104.795 71.4017C105.243 70.8683 105.467 70.095 105.467 69.0817C105.467 68.0577 105.238 67.2843 104.779 66.7617C104.331 66.2283 103.728 65.9617 102.971 65.9617C102.214 65.9617 101.611 66.2283 101.163 66.7617C100.715 67.2843 100.491 68.0577 100.491 69.0817C100.491 70.095 100.715 70.8683 101.163 71.4017C101.611 71.9243 102.214 72.1857 102.971 72.1857ZM108.816 73.0977V66.9217C108.816 66.623 108.8 66.319 108.768 66.0097C108.746 65.6897 108.72 65.375 108.688 65.0657H109.936L110.096 66.8257H109.904C110.138 66.207 110.512 65.7377 111.024 65.4177C111.546 65.087 112.149 64.9217 112.832 64.9217C113.781 64.9217 114.496 65.1777 114.976 65.6897C115.466 66.191 115.712 66.9857 115.712 68.0737V73.0977H114.416V68.1537C114.416 67.3963 114.261 66.847 113.952 66.5057C113.653 66.1537 113.184 65.9777 112.544 65.9777C111.797 65.9777 111.205 66.207 110.768 66.6657C110.33 67.1243 110.112 67.7377 110.112 68.5057V73.0977H108.816ZM121.759 73.2417C120.5 73.2417 119.508 72.879 118.783 72.1537C118.057 71.4177 117.695 70.399 117.695 69.0977C117.695 68.255 117.855 67.5243 118.175 66.9057C118.495 66.2763 118.943 65.791 119.519 65.4497C120.095 65.0977 120.756 64.9217 121.503 64.9217C122.239 64.9217 122.857 65.0763 123.359 65.3857C123.86 65.695 124.244 66.1377 124.511 66.7137C124.777 67.279 124.911 67.951 124.911 68.7297V69.2097H118.687V68.3937H124.063L123.791 68.6017C123.791 67.7483 123.599 67.0817 123.215 66.6017C122.831 66.1217 122.26 65.8817 121.503 65.8817C120.703 65.8817 120.079 66.1643 119.631 66.7297C119.183 67.2843 118.959 68.0363 118.959 68.9857V69.1297C118.959 70.1323 119.204 70.895 119.695 71.4177C120.196 71.9297 120.895 72.1857 121.791 72.1857C122.271 72.1857 122.719 72.1163 123.135 71.9777C123.561 71.8283 123.967 71.5883 124.351 71.2577L124.799 72.1697C124.447 72.511 123.999 72.7777 123.455 72.9697C122.921 73.151 122.356 73.2417 121.759 73.2417ZM130.462 73.2417C129.203 73.2417 128.211 72.879 127.486 72.1537C126.76 71.4177 126.398 70.399 126.398 69.0977C126.398 68.255 126.558 67.5243 126.878 66.9057C127.198 66.2763 127.646 65.791 128.222 65.4497C128.798 65.0977 129.459 64.9217 130.206 64.9217C130.942 64.9217 131.56 65.0763 132.062 65.3857C132.563 65.695 132.947 66.1377 133.214 66.7137C133.48 67.279 133.614 67.951 133.614 68.7297V69.2097H127.39V68.3937H132.766L132.494 68.6017C132.494 67.7483 132.302 67.0817 131.918 66.6017C131.534 66.1217 130.963 65.8817 130.206 65.8817C129.406 65.8817 128.782 66.1643 128.334 66.7297C127.886 67.2843 127.662 68.0363 127.662 68.9857V69.1297C127.662 70.1323 127.907 70.895 128.398 71.4177C128.899 71.9297 129.598 72.1857 130.494 72.1857C130.974 72.1857 131.422 72.1163 131.838 71.9777C132.264 71.8283 132.67 71.5883 133.054 71.2577L133.502 72.1697C133.15 72.511 132.702 72.7777 132.158 72.9697C131.624 73.151 131.059 73.2417 130.462 73.2417ZM135.565 73.0977V67.0017C135.565 66.6817 135.554 66.3563 135.533 66.0257C135.522 65.695 135.501 65.375 135.469 65.0657H136.717L136.877 67.0177L136.653 67.0337C136.759 66.5537 136.946 66.159 137.213 65.8497C137.479 65.5403 137.794 65.311 138.157 65.1617C138.519 65.0017 138.898 64.9217 139.293 64.9217C139.453 64.9217 139.591 64.927 139.709 64.9377C139.837 64.9483 139.954 64.975 140.061 65.0177L140.045 66.1697C139.885 66.1163 139.735 66.0843 139.597 66.0737C139.469 66.0523 139.319 66.0417 139.149 66.0417C138.679 66.0417 138.269 66.1537 137.917 66.3777C137.575 66.6017 137.314 66.8897 137.133 67.2417C136.962 67.5937 136.877 67.967 136.877 68.3617V73.0977H135.565ZM141.409 73.0977V65.0657H142.705V73.0977H141.409ZM141.249 63.2417V61.7857H142.849V63.2417H141.249ZM145.222 73.0977V66.9217C145.222 66.623 145.206 66.319 145.174 66.0097C145.152 65.6897 145.126 65.375 145.094 65.0657H146.342L146.502 66.8257H146.31C146.544 66.207 146.918 65.7377 147.43 65.4177C147.952 65.087 148.555 64.9217 149.238 64.9217C150.187 64.9217 150.902 65.1777 151.382 65.6897C151.872 66.191 152.118 66.9857 152.118 68.0737V73.0977H150.822V68.1537C150.822 67.3963 150.667 66.847 150.358 66.5057C150.059 66.1537 149.59 65.9777 148.95 65.9777C148.203 65.9777 147.611 66.207 147.174 66.6657C146.736 67.1243 146.518 67.7377 146.518 68.5057V73.0977H145.222ZM158.133 76.6657C157.439 76.6657 156.799 76.5803 156.213 76.4097C155.626 76.239 155.098 75.9777 154.629 75.6257L155.013 74.6497C155.343 74.8843 155.669 75.071 155.989 75.2097C156.309 75.3483 156.639 75.4497 156.981 75.5137C157.322 75.5883 157.685 75.6257 158.069 75.6257C158.858 75.6257 159.455 75.4177 159.861 75.0017C160.266 74.5857 160.469 73.9937 160.469 73.2257V70.8737H160.629C160.458 71.503 160.106 72.0043 159.573 72.3777C159.039 72.7403 158.415 72.9217 157.701 72.9217C156.965 72.9217 156.325 72.7617 155.781 72.4417C155.247 72.111 154.831 71.647 154.533 71.0497C154.245 70.4417 154.101 69.727 154.101 68.9057C154.101 68.095 154.245 67.391 154.533 66.7937C154.831 66.1963 155.247 65.7377 155.781 65.4177C156.325 65.087 156.965 64.9217 157.701 64.9217C158.426 64.9217 159.05 65.103 159.573 65.4657C160.106 65.8283 160.458 66.3297 160.629 66.9697L160.469 66.8097L160.613 65.0657H161.877C161.834 65.375 161.802 65.6897 161.781 66.0097C161.759 66.319 161.749 66.623 161.749 66.9217V73.0497C161.749 74.2443 161.439 75.1457 160.821 75.7537C160.213 76.3617 159.317 76.6657 158.133 76.6657ZM157.941 71.8657C158.719 71.8657 159.333 71.6097 159.781 71.0977C160.229 70.575 160.453 69.8443 160.453 68.9057C160.453 67.967 160.229 67.2417 159.781 66.7297C159.333 66.2177 158.719 65.9617 157.941 65.9617C157.173 65.9617 156.559 66.2177 156.101 66.7297C155.642 67.2417 155.413 67.967 155.413 68.9057C155.413 69.8443 155.642 70.575 156.101 71.0977C156.559 71.6097 157.173 71.8657 157.941 71.8657ZM168.553 73.0977V61.8177H175.753V62.9057H169.849V66.8257H175.401V67.9297H169.849V71.9937H175.753V73.0977H168.553ZM176.728 73.0977L180.328 68.6337V69.2737L176.92 65.0657H178.488L181.064 68.3457H180.6L183.16 65.0657H184.712L181.352 69.2577V68.6657L184.92 73.0977H183.336L180.584 69.5937H181.064L178.28 73.0977H176.728ZM189.582 73.2417C188.793 73.2417 188.105 73.071 187.518 72.7297C186.942 72.3883 186.494 71.903 186.174 71.2737C185.865 70.6443 185.71 69.8977 185.71 69.0337C185.71 68.159 185.87 67.4177 186.19 66.8097C186.51 66.191 186.958 65.7217 187.534 65.4017C188.121 65.0817 188.804 64.9217 189.582 64.9217C190.094 64.9217 190.59 65.0123 191.07 65.1937C191.561 65.375 191.966 65.631 192.286 65.9617L191.822 66.8897C191.502 66.5803 191.15 66.351 190.766 66.2017C190.393 66.0523 190.025 65.9777 189.662 65.9777C188.83 65.9777 188.185 66.239 187.726 66.7617C187.268 67.2843 187.038 68.047 187.038 69.0497C187.038 70.0417 187.268 70.8097 187.726 71.3537C188.185 71.8977 188.83 72.1697 189.662 72.1697C190.014 72.1697 190.377 72.1003 190.75 71.9617C191.134 71.823 191.492 71.5937 191.822 71.2737L192.286 72.1857C191.956 72.527 191.545 72.7883 191.054 72.9697C190.564 73.151 190.073 73.2417 189.582 73.2417ZM197.54 73.2417C196.281 73.2417 195.289 72.879 194.564 72.1537C193.838 71.4177 193.476 70.399 193.476 69.0977C193.476 68.255 193.636 67.5243 193.956 66.9057C194.276 66.2763 194.724 65.791 195.3 65.4497C195.876 65.0977 196.537 64.9217 197.284 64.9217C198.02 64.9217 198.638 65.0763 199.14 65.3857C199.641 65.695 200.025 66.1377 200.292 66.7137C200.558 67.279 200.692 67.951 200.692 68.7297V69.2097H194.468V68.3937H199.844L199.572 68.6017C199.572 67.7483 199.38 67.0817 198.996 66.6017C198.612 66.1217 198.041 65.8817 197.284 65.8817C196.484 65.8817 195.86 66.1643 195.412 66.7297C194.964 67.2843 194.74 68.0363 194.74 68.9857V69.1297C194.74 70.1323 194.985 70.895 195.476 71.4177C195.977 71.9297 196.676 72.1857 197.572 72.1857C198.052 72.1857 198.5 72.1163 198.916 71.9777C199.342 71.8283 199.748 71.5883 200.132 71.2577L200.58 72.1697C200.228 72.511 199.78 72.7777 199.236 72.9697C198.702 73.151 198.137 73.2417 197.54 73.2417ZM202.675 73.0977V61.3217H203.971V73.0977H202.675ZM206.487 73.0977V61.3217H207.783V73.0977H206.487ZM213.868 73.2417C212.609 73.2417 211.617 72.879 210.892 72.1537C210.167 71.4177 209.804 70.399 209.804 69.0977C209.804 68.255 209.964 67.5243 210.284 66.9057C210.604 66.2763 211.052 65.791 211.628 65.4497C212.204 65.0977 212.865 64.9217 213.612 64.9217C214.348 64.9217 214.967 65.0763 215.468 65.3857C215.969 65.695 216.353 66.1377 216.62 66.7137C216.887 67.279 217.02 67.951 217.02 68.7297V69.2097H210.796V68.3937H216.172L215.9 68.6017C215.9 67.7483 215.708 67.0817 215.324 66.6017C214.94 66.1217 214.369 65.8817 213.612 65.8817C212.812 65.8817 212.188 66.1643 211.74 66.7297C211.292 67.2843 211.068 68.0363 211.068 68.9857V69.1297C211.068 70.1323 211.313 70.895 211.804 71.4177C212.305 71.9297 213.004 72.1857 213.9 72.1857C214.38 72.1857 214.828 72.1163 215.244 71.9777C215.671 71.8283 216.076 71.5883 216.46 71.2577L216.908 72.1697C216.556 72.511 216.108 72.7777 215.564 72.9697C215.031 73.151 214.465 73.2417 213.868 73.2417ZM219.003 73.0977V66.9217C219.003 66.623 218.987 66.319 218.955 66.0097C218.934 65.6897 218.907 65.375 218.875 65.0657H220.123L220.283 66.8257H220.091C220.326 66.207 220.699 65.7377 221.211 65.4177C221.734 65.087 222.336 64.9217 223.019 64.9217C223.968 64.9217 224.683 65.1777 225.163 65.6897C225.654 66.191 225.899 66.9857 225.899 68.0737V73.0977H224.603V68.1537C224.603 67.3963 224.448 66.847 224.139 66.5057C223.84 66.1537 223.371 65.9777 222.731 65.9777C221.984 65.9777 221.392 66.207 220.955 66.6657C220.518 67.1243 220.299 67.7377 220.299 68.5057V73.0977H219.003ZM231.754 73.2417C230.965 73.2417 230.277 73.071 229.69 72.7297C229.114 72.3883 228.666 71.903 228.346 71.2737C228.037 70.6443 227.882 69.8977 227.882 69.0337C227.882 68.159 228.042 67.4177 228.362 66.8097C228.682 66.191 229.13 65.7217 229.706 65.4017C230.293 65.0817 230.975 64.9217 231.754 64.9217C232.266 64.9217 232.762 65.0123 233.242 65.1937C233.733 65.375 234.138 65.631 234.458 65.9617L233.994 66.8897C233.674 66.5803 233.322 66.351 232.938 66.2017C232.565 66.0523 232.197 65.9777 231.834 65.9777C231.002 65.9777 230.357 66.239 229.898 66.7617C229.439 67.2843 229.21 68.047 229.21 69.0497C229.21 70.0417 229.439 70.8097 229.898 71.3537C230.357 71.8977 231.002 72.1697 231.834 72.1697C232.186 72.1697 232.549 72.1003 232.922 71.9617C233.306 71.823 233.663 71.5937 233.994 71.2737L234.458 72.1857C234.127 72.527 233.717 72.7883 233.226 72.9697C232.735 73.151 232.245 73.2417 231.754 73.2417ZM239.712 73.2417C238.453 73.2417 237.461 72.879 236.736 72.1537C236.01 71.4177 235.648 70.399 235.648 69.0977C235.648 68.255 235.808 67.5243 236.128 66.9057C236.448 66.2763 236.896 65.791 237.472 65.4497C238.048 65.0977 238.709 64.9217 239.456 64.9217C240.192 64.9217 240.81 65.0763 241.312 65.3857C241.813 65.695 242.197 66.1377 242.464 66.7137C242.73 67.279 242.864 67.951 242.864 68.7297V69.2097H236.64V68.3937H242.016L241.744 68.6017C241.744 67.7483 241.552 67.0817 241.168 66.6017C240.784 66.1217 240.213 65.8817 239.456 65.8817C238.656 65.8817 238.032 66.1643 237.584 66.7297C237.136 67.2843 236.912 68.0363 236.912 68.9857V69.1297C236.912 70.1323 237.157 70.895 237.648 71.4177C238.149 71.9297 238.848 72.1857 239.744 72.1857C240.224 72.1857 240.672 72.1163 241.088 71.9777C241.514 71.8283 241.92 71.5883 242.304 71.2577L242.752 72.1697C242.4 72.511 241.952 72.7777 241.408 72.9697C240.874 73.151 240.309 73.2417 239.712 73.2417ZM249.019 73.0977V65.0657H250.315V73.0977H249.019ZM248.859 63.2417V61.7857H250.459V63.2417H248.859ZM252.831 73.0977V66.9217C252.831 66.623 252.815 66.319 252.783 66.0097C252.762 65.6897 252.735 65.375 252.703 65.0657H253.951L254.111 66.8257H253.919C254.154 66.207 254.527 65.7377 255.039 65.4177C255.562 65.087 256.165 64.9217 256.847 64.9217C257.797 64.9217 258.511 65.1777 258.991 65.6897C259.482 66.191 259.727 66.9857 259.727 68.0737V73.0977H258.431V68.1537C258.431 67.3963 258.277 66.847 257.967 66.5057C257.669 66.1537 257.199 65.9777 256.559 65.9777C255.813 65.9777 255.221 66.207 254.783 66.6657C254.346 67.1243 254.127 67.7377 254.127 68.5057V73.0977H252.831ZM266.522 73.0977V61.8177H271.114C272.298 61.8177 273.21 62.1057 273.85 62.6817C274.49 63.247 274.81 64.0363 274.81 65.0497C274.81 66.0417 274.49 66.831 273.85 67.4177C273.21 67.9937 272.298 68.2817 271.114 68.2817H267.85V73.0977H266.522ZM267.85 67.1777H270.986C271.807 67.1777 272.426 66.991 272.842 66.6177C273.269 66.2443 273.482 65.7217 273.482 65.0497C273.482 64.367 273.269 63.839 272.842 63.4657C272.426 63.0923 271.807 62.9057 270.986 62.9057H267.85V67.1777ZM276.612 73.0977V67.0017C276.612 66.6817 276.601 66.3563 276.58 66.0257C276.569 65.695 276.548 65.375 276.516 65.0657H277.764L277.924 67.0177L277.7 67.0337C277.806 66.5537 277.993 66.159 278.26 65.8497C278.526 65.5403 278.841 65.311 279.204 65.1617C279.566 65.0017 279.945 64.9217 280.34 64.9217C280.5 64.9217 280.638 64.927 280.756 64.9377C280.884 64.9483 281.001 64.975 281.108 65.0177L281.092 66.1697C280.932 66.1163 280.782 66.0843 280.644 66.0737C280.516 66.0523 280.366 66.0417 280.196 66.0417C279.726 66.0417 279.316 66.1537 278.964 66.3777C278.622 66.6017 278.361 66.8897 278.18 67.2417C278.009 67.5937 277.924 67.967 277.924 68.3617V73.0977H276.612ZM285.658 73.2417C284.89 73.2417 284.218 73.0763 283.642 72.7457C283.077 72.4043 282.64 71.9243 282.33 71.3057C282.021 70.6763 281.866 69.935 281.866 69.0817C281.866 68.2177 282.021 67.4763 282.33 66.8577C282.64 66.239 283.077 65.7643 283.642 65.4337C284.218 65.0923 284.89 64.9217 285.658 64.9217C286.437 64.9217 287.109 65.0923 287.674 65.4337C288.25 65.7643 288.693 66.239 289.002 66.8577C289.322 67.4763 289.482 68.2177 289.482 69.0817C289.482 69.935 289.322 70.6763 289.002 71.3057C288.693 71.9243 288.25 72.4043 287.674 72.7457C287.109 73.0763 286.437 73.2417 285.658 73.2417ZM285.658 72.1857C286.426 72.1857 287.034 71.9243 287.482 71.4017C287.93 70.8683 288.154 70.095 288.154 69.0817C288.154 68.0577 287.925 67.2843 287.466 66.7617C287.018 66.2283 286.416 65.9617 285.658 65.9617C284.901 65.9617 284.298 66.2283 283.85 66.7617C283.402 67.2843 283.178 68.0577 283.178 69.0817C283.178 70.095 283.402 70.8683 283.85 71.4017C284.298 71.9243 284.901 72.1857 285.658 72.1857ZM291.503 76.5537V66.9217C291.503 66.623 291.487 66.319 291.455 66.0097C291.434 65.6897 291.407 65.375 291.375 65.0657H292.623L292.799 66.9697H292.607C292.778 66.3403 293.124 65.8443 293.647 65.4817C294.17 65.1083 294.794 64.9217 295.519 64.9217C296.244 64.9217 296.868 65.087 297.391 65.4177C297.924 65.7483 298.34 66.223 298.639 66.8417C298.938 67.4603 299.087 68.207 299.087 69.0817C299.087 69.9457 298.938 70.687 298.639 71.3057C298.351 71.9243 297.94 72.4043 297.407 72.7457C296.874 73.0763 296.244 73.2417 295.519 73.2417C294.804 73.2417 294.186 73.0603 293.663 72.6977C293.14 72.335 292.794 71.839 292.623 71.2097H292.799V76.5537H291.503ZM295.263 72.1857C296.031 72.1857 296.639 71.9243 297.087 71.4017C297.546 70.8683 297.775 70.095 297.775 69.0817C297.775 68.0577 297.546 67.2843 297.087 66.7617C296.639 66.2283 296.031 65.9617 295.263 65.9617C294.506 65.9617 293.898 66.2283 293.439 66.7617C292.991 67.2843 292.767 68.0577 292.767 69.0817C292.767 70.095 292.991 70.8683 293.439 71.4017C293.898 71.9243 294.506 72.1857 295.263 72.1857ZM304.665 73.2417C303.406 73.2417 302.414 72.879 301.689 72.1537C300.963 71.4177 300.601 70.399 300.601 69.0977C300.601 68.255 300.761 67.5243 301.081 66.9057C301.401 66.2763 301.849 65.791 302.425 65.4497C303.001 65.0977 303.662 64.9217 304.409 64.9217C305.145 64.9217 305.763 65.0763 306.265 65.3857C306.766 65.695 307.15 66.1377 307.417 66.7137C307.683 67.279 307.817 67.951 307.817 68.7297V69.2097H301.593V68.3937H306.969L306.697 68.6017C306.697 67.7483 306.505 67.0817 306.121 66.6017C305.737 66.1217 305.166 65.8817 304.409 65.8817C303.609 65.8817 302.985 66.1643 302.537 66.7297C302.089 67.2843 301.865 68.0363 301.865 68.9857V69.1297C301.865 70.1323 302.11 70.895 302.601 71.4177C303.102 71.9297 303.801 72.1857 304.697 72.1857C305.177 72.1857 305.625 72.1163 306.041 71.9777C306.467 71.8283 306.873 71.5883 307.257 71.2577L307.705 72.1697C307.353 72.511 306.905 72.7777 306.361 72.9697C305.827 73.151 305.262 73.2417 304.665 73.2417ZM309.768 73.0977V67.0017C309.768 66.6817 309.757 66.3563 309.736 66.0257C309.725 65.695 309.704 65.375 309.672 65.0657H310.92L311.08 67.0177L310.856 67.0337C310.963 66.5537 311.149 66.159 311.416 65.8497C311.683 65.5403 311.997 65.311 312.36 65.1617C312.723 65.0017 313.101 64.9217 313.496 64.9217C313.656 64.9217 313.795 64.927 313.912 64.9377C314.04 64.9483 314.157 64.975 314.264 65.0177L314.248 66.1697C314.088 66.1163 313.939 66.0843 313.8 66.0737C313.672 66.0523 313.523 66.0417 313.352 66.0417C312.883 66.0417 312.472 66.1537 312.12 66.3777C311.779 66.6017 311.517 66.8897 311.336 67.2417C311.165 67.5937 311.08 67.967 311.08 68.3617V73.0977H309.768ZM318.882 73.2417C318.093 73.2417 317.49 73.0177 317.074 72.5697C316.658 72.111 316.45 71.423 316.45 70.5057V66.0737H314.882V65.0657H316.45V62.8737L317.746 62.5057V65.0657H320.05V66.0737H317.746V70.3617C317.746 71.0017 317.853 71.4603 318.066 71.7377C318.29 72.0043 318.621 72.1377 319.058 72.1377C319.261 72.1377 319.442 72.1217 319.602 72.0897C319.762 72.047 319.906 71.999 320.034 71.9457V73.0337C319.885 73.0977 319.704 73.1457 319.49 73.1777C319.288 73.2203 319.085 73.2417 318.882 73.2417ZM321.402 76.7297L321.098 75.6577C321.599 75.5403 322.015 75.4017 322.346 75.2417C322.687 75.0923 322.97 74.8897 323.194 74.6337C323.418 74.3777 323.61 74.0577 323.77 73.6737L324.186 72.7297L324.154 73.2737L320.65 65.0657H322.058L324.954 72.1217H324.538L327.402 65.0657H328.762L325.05 73.7697C324.836 74.2817 324.602 74.7083 324.346 75.0497C324.09 75.4017 323.812 75.6843 323.514 75.8977C323.226 76.1217 322.906 76.2977 322.554 76.4257C322.202 76.5537 321.818 76.655 321.402 76.7297ZM338.218 73.2417C337.311 73.2417 336.5 73.1243 335.786 72.8897C335.071 72.655 334.447 72.319 333.914 71.8817L334.394 70.8257C334.767 71.103 335.14 71.3377 335.514 71.5297C335.898 71.711 336.308 71.8497 336.746 71.9457C337.183 72.031 337.674 72.0737 338.218 72.0737C339.167 72.0737 339.871 71.8977 340.33 71.5457C340.788 71.1937 341.018 70.7243 341.018 70.1377C341.018 69.6363 340.858 69.2523 340.538 68.9857C340.218 68.719 339.658 68.5057 338.858 68.3457L337.178 68.0097C336.143 67.7963 335.37 67.4497 334.858 66.9697C334.356 66.4897 334.106 65.839 334.106 65.0177C334.106 64.3457 334.276 63.759 334.618 63.2577C334.97 62.7563 335.46 62.367 336.09 62.0897C336.719 61.8123 337.45 61.6737 338.282 61.6737C339.082 61.6737 339.812 61.7963 340.474 62.0417C341.135 62.2763 341.7 62.623 342.17 63.0817L341.706 64.1057C341.204 63.6577 340.676 63.3377 340.122 63.1457C339.578 62.943 338.959 62.8417 338.266 62.8417C337.391 62.8417 336.698 63.0337 336.186 63.4177C335.684 63.791 335.434 64.303 335.434 64.9537C335.434 65.4763 335.594 65.887 335.914 66.1857C336.234 66.4737 336.762 66.6923 337.498 66.8417L339.194 67.1777C340.282 67.4017 341.082 67.7377 341.594 68.1857C342.106 68.6337 342.362 69.263 342.362 70.0737C342.362 70.6923 342.191 71.2417 341.85 71.7217C341.519 72.2017 341.044 72.575 340.426 72.8417C339.807 73.1083 339.071 73.2417 338.218 73.2417ZM347.658 73.2417C346.89 73.2417 346.218 73.0763 345.642 72.7457C345.077 72.4043 344.64 71.9243 344.33 71.3057C344.021 70.6763 343.866 69.935 343.866 69.0817C343.866 68.2177 344.021 67.4763 344.33 66.8577C344.64 66.239 345.077 65.7643 345.642 65.4337C346.218 65.0923 346.89 64.9217 347.658 64.9217C348.437 64.9217 349.109 65.0923 349.674 65.4337C350.25 65.7643 350.693 66.239 351.002 66.8577C351.322 67.4763 351.482 68.2177 351.482 69.0817C351.482 69.935 351.322 70.6763 351.002 71.3057C350.693 71.9243 350.25 72.4043 349.674 72.7457C349.109 73.0763 348.437 73.2417 347.658 73.2417ZM347.658 72.1857C348.426 72.1857 349.034 71.9243 349.482 71.4017C349.93 70.8683 350.154 70.095 350.154 69.0817C350.154 68.0577 349.925 67.2843 349.466 66.7617C349.018 66.2283 348.416 65.9617 347.658 65.9617C346.901 65.9617 346.298 66.2283 345.85 66.7617C345.402 67.2843 345.178 68.0577 345.178 69.0817C345.178 70.095 345.402 70.8683 345.85 71.4017C346.298 71.9243 346.901 72.1857 347.658 72.1857ZM353.503 73.0977V61.3217H354.799V73.0977H353.503ZM360.148 73.2417C359.198 73.2417 358.478 72.9803 357.988 72.4577C357.508 71.935 357.268 71.135 357.268 70.0577V65.0657H358.564V70.0257C358.564 70.7617 358.713 71.3057 359.012 71.6577C359.31 71.999 359.774 72.1697 360.404 72.1697C361.108 72.1697 361.673 71.9403 362.1 71.4817C362.526 71.023 362.74 70.4097 362.74 69.6417V65.0657H364.036V73.0977H362.772V71.2897H362.98C362.756 71.9083 362.393 72.3883 361.892 72.7297C361.401 73.071 360.82 73.2417 360.148 73.2417ZM369.398 73.2417C368.609 73.2417 368.006 73.0177 367.59 72.5697C367.174 72.111 366.966 71.423 366.966 70.5057V66.0737H365.398V65.0657H366.966V62.8737L368.262 62.5057V65.0657H370.566V66.0737H368.262V70.3617C368.262 71.0017 368.369 71.4603 368.582 71.7377C368.806 72.0043 369.137 72.1377 369.574 72.1377C369.777 72.1377 369.958 72.1217 370.118 72.0897C370.278 72.047 370.422 71.999 370.55 71.9457V73.0337C370.401 73.0977 370.219 73.1457 370.006 73.1777C369.803 73.2203 369.601 73.2417 369.398 73.2417ZM372.144 73.0977V65.0657H373.44V73.0977H372.144ZM371.984 63.2417V61.7857H373.584V63.2417H371.984ZM379.252 73.2417C378.484 73.2417 377.812 73.0763 377.236 72.7457C376.671 72.4043 376.234 71.9243 375.924 71.3057C375.615 70.6763 375.46 69.935 375.46 69.0817C375.46 68.2177 375.615 67.4763 375.924 66.8577C376.234 66.239 376.671 65.7643 377.236 65.4337C377.812 65.0923 378.484 64.9217 379.252 64.9217C380.031 64.9217 380.703 65.0923 381.268 65.4337C381.844 65.7643 382.287 66.239 382.596 66.8577C382.916 67.4763 383.076 68.2177 383.076 69.0817C383.076 69.935 382.916 70.6763 382.596 71.3057C382.287 71.9243 381.844 72.4043 381.268 72.7457C380.703 73.0763 380.031 73.2417 379.252 73.2417ZM379.252 72.1857C380.02 72.1857 380.628 71.9243 381.076 71.4017C381.524 70.8683 381.748 70.095 381.748 69.0817C381.748 68.0577 381.519 67.2843 381.06 66.7617C380.612 66.2283 380.01 65.9617 379.252 65.9617C378.495 65.9617 377.892 66.2283 377.444 66.7617C376.996 67.2843 376.772 68.0577 376.772 69.0817C376.772 70.095 376.996 70.8683 377.444 71.4017C377.892 71.9243 378.495 72.1857 379.252 72.1857ZM385.097 73.0977V66.9217C385.097 66.623 385.081 66.319 385.049 66.0097C385.027 65.6897 385.001 65.375 384.969 65.0657H386.217L386.377 66.8257H386.185C386.419 66.207 386.793 65.7377 387.305 65.4177C387.827 65.087 388.43 64.9217 389.113 64.9217C390.062 64.9217 390.777 65.1777 391.257 65.6897C391.747 66.191 391.993 66.9857 391.993 68.0737V73.0977H390.697V68.1537C390.697 67.3963 390.542 66.847 390.233 66.5057C389.934 66.1537 389.465 65.9777 388.825 65.9777C388.078 65.9777 387.486 66.207 387.049 66.6657C386.611 67.1243 386.393 67.7377 386.393 68.5057V73.0977H385.097ZM397.144 73.2417C396.504 73.2417 395.906 73.1563 395.352 72.9857C394.797 72.8043 394.338 72.5537 393.976 72.2337L394.424 71.3217C394.818 71.631 395.245 71.8603 395.704 72.0097C396.173 72.159 396.658 72.2337 397.16 72.2337C397.8 72.2337 398.28 72.1217 398.6 71.8977C398.93 71.663 399.096 71.343 399.096 70.9377C399.096 70.6283 398.989 70.383 398.776 70.2017C398.573 70.0097 398.237 69.8603 397.768 69.7537L396.28 69.4497C395.597 69.3003 395.085 69.0497 394.744 68.6977C394.402 68.335 394.232 67.8763 394.232 67.3217C394.232 66.8523 394.354 66.4417 394.6 66.0897C394.845 65.727 395.202 65.4443 395.672 65.2417C396.141 65.0283 396.69 64.9217 397.32 64.9217C397.906 64.9217 398.445 65.0123 398.936 65.1937C399.437 65.3643 399.853 65.615 400.184 65.9457L399.72 66.8417C399.4 66.5323 399.032 66.303 398.616 66.1537C398.21 65.9937 397.789 65.9137 397.352 65.9137C396.722 65.9137 396.248 66.0417 395.928 66.2977C395.618 66.543 395.464 66.8683 395.464 67.2737C395.464 67.583 395.56 67.839 395.752 68.0417C395.954 68.2337 396.264 68.3777 396.68 68.4737L398.168 68.7777C398.893 68.9377 399.432 69.1883 399.784 69.5297C400.146 69.8603 400.328 70.3083 400.328 70.8737C400.328 71.3537 400.194 71.775 399.928 72.1377C399.661 72.4897 399.288 72.7617 398.808 72.9537C398.338 73.1457 397.784 73.2417 397.144 73.2417Z" fill="white"/>
<path d="M410.751 73.2577C409.845 73.2577 409.007 73.1457 408.239 72.9217C407.482 72.687 406.831 72.367 406.287 71.9617L406.927 70.3457C407.29 70.6017 407.669 70.8203 408.063 71.0017C408.458 71.1723 408.879 71.3057 409.327 71.4017C409.775 71.487 410.25 71.5297 410.751 71.5297C411.594 71.5297 412.202 71.391 412.575 71.1137C412.949 70.8363 413.135 70.4737 413.135 70.0257C413.135 69.631 413.007 69.3323 412.751 69.1297C412.495 68.9163 412.037 68.7403 411.375 68.6017L409.567 68.2337C408.533 68.0203 407.759 67.663 407.247 67.1617C406.735 66.6603 406.479 65.9883 406.479 65.1457C406.479 64.4417 406.666 63.8283 407.039 63.3057C407.413 62.783 407.935 62.3777 408.607 62.0897C409.279 61.8017 410.063 61.6577 410.959 61.6577C411.759 61.6577 412.501 61.775 413.183 62.0097C413.866 62.2337 414.437 62.559 414.895 62.9857L414.255 64.5217C413.797 64.1377 413.295 63.855 412.751 63.6737C412.207 63.4817 411.599 63.3857 410.927 63.3857C410.17 63.3857 409.578 63.535 409.151 63.8337C408.735 64.1217 408.527 64.5217 408.527 65.0337C408.527 65.4283 408.655 65.743 408.911 65.9777C409.178 66.2123 409.626 66.3937 410.255 66.5217L412.047 66.8737C413.114 67.087 413.903 67.439 414.415 67.9297C414.927 68.4097 415.183 69.0603 415.183 69.8817C415.183 70.5537 415.002 71.1457 414.639 71.6577C414.277 72.159 413.765 72.5537 413.103 72.8417C412.442 73.119 411.658 73.2577 410.751 73.2577ZM416.968 73.0977V65.0177H418.968V73.0977H416.968ZM416.856 63.4977V61.5457H419.08V63.4977H416.856ZM421.14 73.0977V67.0337C421.14 66.703 421.129 66.367 421.108 66.0257C421.086 65.6843 421.054 65.3483 421.012 65.0177H422.948L423.108 66.6177H422.916C423.172 66.0523 423.55 65.6203 424.052 65.3217C424.553 65.0123 425.134 64.8577 425.796 64.8577C426.745 64.8577 427.46 65.1243 427.94 65.6577C428.42 66.191 428.66 67.023 428.66 68.1537V73.0977H426.66V68.2497C426.66 67.599 426.532 67.135 426.276 66.8577C426.03 66.5697 425.657 66.4257 425.156 66.4257C424.537 66.4257 424.046 66.6177 423.684 67.0017C423.321 67.3857 423.14 67.8977 423.14 68.5377V73.0977H421.14ZM434.492 73.2577C433.66 73.2577 432.93 73.087 432.3 72.7457C431.682 72.4043 431.202 71.919 430.86 71.2897C430.519 70.6497 430.348 69.8923 430.348 69.0177C430.348 68.143 430.519 67.3963 430.86 66.7777C431.212 66.159 431.698 65.6843 432.316 65.3537C432.935 65.023 433.66 64.8577 434.492 64.8577C435.026 64.8577 435.543 64.943 436.044 65.1137C436.556 65.2737 436.972 65.5083 437.292 65.8177L436.684 67.2097C436.396 66.943 436.071 66.7457 435.708 66.6177C435.356 66.479 435.01 66.4097 434.668 66.4097C433.954 66.4097 433.394 66.6337 432.988 67.0817C432.594 67.5297 432.396 68.1803 432.396 69.0337C432.396 69.887 432.594 70.543 432.988 71.0017C433.394 71.4603 433.954 71.6897 434.668 71.6897C434.999 71.6897 435.34 71.6257 435.692 71.4977C436.055 71.3697 436.386 71.1723 436.684 70.9057L437.292 72.2817C436.962 72.591 436.54 72.831 436.028 73.0017C435.527 73.1723 435.015 73.2577 434.492 73.2577ZM442.59 73.2577C441.236 73.2577 440.174 72.8843 439.406 72.1377C438.638 71.391 438.254 70.367 438.254 69.0657C438.254 68.223 438.42 67.487 438.75 66.8577C439.081 66.2283 439.54 65.7377 440.126 65.3857C440.724 65.0337 441.417 64.8577 442.206 64.8577C442.985 64.8577 443.636 65.023 444.158 65.3537C444.681 65.6843 445.076 66.1483 445.342 66.7457C445.62 67.343 445.758 68.0417 445.758 68.8417V69.3697H439.87V68.3137H444.334L444.062 68.5377C444.062 67.791 443.902 67.2203 443.582 66.8257C443.273 66.431 442.82 66.2337 442.222 66.2337C441.561 66.2337 441.049 66.4683 440.686 66.9377C440.334 67.407 440.158 68.063 440.158 68.9057V69.1137C440.158 69.9883 440.372 70.6443 440.798 71.0817C441.236 71.5083 441.849 71.7217 442.638 71.7217C443.097 71.7217 443.524 71.663 443.918 71.5457C444.324 71.4177 444.708 71.215 445.07 70.9377L445.662 72.2817C445.278 72.591 444.82 72.831 444.286 73.0017C443.753 73.1723 443.188 73.2577 442.59 73.2577ZM452.003 73.0977V71.5777L455.747 67.6737C456.216 67.183 456.563 66.7297 456.787 66.3137C457.011 65.8977 457.123 65.471 457.123 65.0337C457.123 64.4897 456.952 64.079 456.611 63.8017C456.269 63.5243 455.773 63.3857 455.123 63.3857C454.6 63.3857 454.099 63.4817 453.619 63.6737C453.139 63.855 452.669 64.143 452.211 64.5377L451.539 63.0017C451.997 62.5963 452.563 62.271 453.235 62.0257C453.917 61.7803 454.632 61.6577 455.379 61.6577C456.595 61.6577 457.528 61.9297 458.179 62.4737C458.829 63.0177 459.155 63.7963 459.155 64.8097C459.155 65.5137 458.989 66.1857 458.659 66.8257C458.328 67.455 457.816 68.1163 457.123 68.8097L454.003 71.9297V71.3857H459.603V73.0977H452.003ZM465.148 73.2577C463.826 73.2577 462.807 72.7563 462.092 71.7537C461.378 70.7403 461.02 69.3003 461.02 67.4337C461.02 65.5457 461.378 64.111 462.092 63.1297C462.807 62.1483 463.826 61.6577 465.148 61.6577C466.482 61.6577 467.5 62.1483 468.204 63.1297C468.919 64.111 469.276 65.5403 469.276 67.4177C469.276 69.295 468.919 70.7403 468.204 71.7537C467.5 72.7563 466.482 73.2577 465.148 73.2577ZM465.148 71.5617C465.874 71.5617 466.412 71.231 466.764 70.5697C467.116 69.8977 467.292 68.847 467.292 67.4177C467.292 65.9883 467.116 64.9537 466.764 64.3137C466.412 63.663 465.874 63.3377 465.148 63.3377C464.434 63.3377 463.895 63.663 463.532 64.3137C463.18 64.9537 463.004 65.9883 463.004 67.4177C463.004 68.847 463.18 69.8977 463.532 70.5697C463.895 71.231 464.434 71.5617 465.148 71.5617ZM471.718 73.0977V71.3857H474.31V63.5457H475.302L471.974 65.5297V63.5777L474.902 61.8177H476.374V71.3857H478.806V73.0977H471.718ZM484.336 73.2577C483.013 73.2577 481.995 72.7563 481.28 71.7537C480.565 70.7403 480.208 69.3003 480.208 67.4337C480.208 65.5457 480.565 64.111 481.28 63.1297C481.995 62.1483 483.013 61.6577 484.336 61.6577C485.669 61.6577 486.688 62.1483 487.392 63.1297C488.107 64.111 488.464 65.5403 488.464 67.4177C488.464 69.295 488.107 70.7403 487.392 71.7537C486.688 72.7563 485.669 73.2577 484.336 73.2577ZM484.336 71.5617C485.061 71.5617 485.6 71.231 485.952 70.5697C486.304 69.8977 486.48 68.847 486.48 67.4177C486.48 65.9883 486.304 64.9537 485.952 64.3137C485.6 63.663 485.061 63.3377 484.336 63.3377C483.621 63.3377 483.083 63.663 482.72 64.3137C482.368 64.9537 482.192 65.9883 482.192 67.4177C482.192 68.847 482.368 69.8977 482.72 70.5697C483.083 71.231 483.621 71.5617 484.336 71.5617Z" fill="white"/>
<path d="M58.7015 20.3078V23.6621C64.5115 28.5378 68.2129 35.8492 68.2129 44.0093C68.2129 53.3389 63.3748 61.5587 56.0762 66.2961V45.8554L48.2029 41.5193V69.7487C47.3446 69.9672 46.4693 70.1439 45.5802 70.2763V28.6435L37.7086 24.3048V70.2754C36.8187 70.1431 35.9433 69.9664 35.0842 69.7478V7.31454L27.2126 2.97754V66.297C19.9132 61.5587 15.076 53.3381 15.076 44.0093C15.076 35.8492 18.7765 28.5378 24.5882 23.6621V20.3078C17.2273 25.6163 12.4259 34.2621 12.4259 44.0093C12.4259 60.1142 25.5336 73.2174 41.644 73.2174C57.7553 73.2174 70.8629 60.1142 70.8629 44.0093C70.8621 34.2621 66.0607 25.6163 58.7015 20.3078Z" fill="white"/>
<path d="M86.0862 47.3403H84.1766V27.1277H86.0862V35.8023H98.0494V27.1277H99.959V47.3403H98.0494V37.4305H86.0862V47.3403ZM110.013 47.7333C106.306 47.6772 103.273 45.1506 103.273 40.0694C103.273 35.8303 105.519 32.4054 110.013 32.4054C114.562 32.4054 116.752 35.8023 116.752 40.0694C116.752 44.6733 114.085 47.7333 110.013 47.7333ZM114.955 40.0694C114.927 36.6445 113.579 33.9214 110.013 33.9214C106.474 33.9214 105.07 36.9252 105.07 40.0694C105.07 43.6908 106.783 46.2174 110.013 46.2174C113.551 46.2174 114.955 43.1855 114.955 40.0694ZM129.699 40.715V32.7984H131.383V47.3403H129.699V45.319C128.8 46.3297 127.564 47.7333 125.009 47.7333C121.133 47.7333 119.842 45.4032 119.842 42.3714V32.7984H121.526V42.3433C121.526 44.8418 122.622 46.2174 125.261 46.2174C128.042 46.2174 129.699 43.9154 129.699 40.715ZM134.725 42.7925H136.438C136.972 45.291 138.264 46.2174 140.791 46.2174C143.234 46.2174 144.386 44.926 144.386 43.5224C144.386 39.3114 135.062 42.2871 135.062 36.5602C135.062 34.1459 136.944 32.4054 140.173 32.4054C143.319 32.4054 145.369 33.6968 145.79 36.9813H144.077C143.768 34.7355 142.251 33.9214 140.145 33.9214C138.011 33.9214 136.86 34.932 136.86 36.4199C136.86 40.3782 146.183 37.9077 146.183 43.4943C146.183 46.2735 143.684 47.7333 140.258 47.7333C136.831 47.7333 134.866 45.5436 134.725 42.7925ZM150.536 39.0587H160.028C160.028 36.2234 158.455 33.9214 155.422 33.9214C152.445 33.9214 150.873 36.3076 150.536 39.0587ZM161.825 40.4624H150.536C150.508 43.6066 152.193 46.2174 155.422 46.2174C157.613 46.2174 159.326 45.0102 159.831 42.8767H161.713C160.87 45.6278 159.129 47.7333 155.422 47.7333C150.76 47.7333 148.739 44.4207 148.739 40.1255C148.739 35.8865 151.266 32.4054 155.422 32.4054C159.41 32.4054 161.853 35.2408 161.825 40.4624ZM177.13 37.3744H175.417C174.827 35.2127 173.339 33.9214 171.092 33.9214C167.638 33.9214 166.206 37.0655 166.206 40.0974C166.206 43.1574 167.61 46.2174 171.092 46.2174C173.592 46.2174 175.164 44.7295 175.557 42.3152H177.355C176.765 45.5436 174.743 47.7333 171.092 47.7333C166.459 47.7333 164.409 44.3926 164.409 40.0974C164.409 36.0549 166.739 32.4054 171.092 32.4054C174.434 32.4054 176.625 34.0056 177.13 37.3744ZM182.662 47.3403H180.977V27.1277H182.662V47.3403ZM188.897 47.3403H187.212V32.7984H188.897V47.3403ZM188.981 29.6262H187.127V27.1277H188.981V29.6262ZM204.426 40.0132C204.426 36.7287 202.573 33.9214 199.512 33.9214C196.03 33.9214 194.401 36.869 194.541 40.5185C194.569 44.168 196.676 46.2174 199.512 46.2174C202.685 46.2174 204.426 43.5224 204.426 40.0132ZM204.426 35.3531V32.7984H206.111V53.0672H204.426V45.0102C203.359 46.7788 201.281 47.7333 199.231 47.7333C194.794 47.7333 192.744 44.1119 192.744 40.0413C192.744 35.7461 194.626 32.4054 199.315 32.4054C201.169 32.4054 203.387 33.4441 204.37 35.3531H204.426ZM220.209 40.715V32.7984H221.894V47.3403H220.209V45.319C219.31 46.3297 218.075 47.7333 215.519 47.7333C211.644 47.7333 210.352 45.4032 210.352 42.3714V32.7984H212.037V42.3433C212.037 44.8418 213.132 46.2174 215.772 46.2174C218.552 46.2174 220.209 43.9154 220.209 40.715ZM227.005 39.0587H236.497C236.497 36.2234 234.924 33.9214 231.891 33.9214C228.914 33.9214 227.342 36.3076 227.005 39.0587ZM238.294 40.4624H227.005C226.977 43.6066 228.662 46.2174 231.891 46.2174C234.082 46.2174 235.795 45.0102 236.3 42.8767H238.182C237.339 45.6278 235.598 47.7333 231.891 47.7333C227.229 47.7333 225.208 44.4207 225.208 40.1255C225.208 35.8865 227.735 32.4054 231.891 32.4054C235.879 32.4054 238.322 35.2408 238.294 40.4624Z" fill="white"/>
</svg>
