<svg width="262" height="124" viewBox="0 0 262 124" fill="none" xmlns="http://www.w3.org/2000/svg">
<path d="M66.7015 44.2101V47.5644C72.5115 52.4401 76.2129 59.7516 76.2129 67.9116C76.2129 77.2413 71.3748 85.4611 64.0762 90.1985V69.7577L56.2029 65.4216V93.651C55.3446 93.8696 54.4693 94.0463 53.5802 94.1786V52.5459L45.7086 48.2072V94.1778C44.8187 94.0454 43.9433 93.8687 43.0842 93.6501V31.2169L35.2126 26.8799V90.1993C27.9132 85.4611 23.076 77.2404 23.076 67.9116C23.076 59.7516 26.7765 52.4401 32.5882 47.5644V44.2101C25.2273 49.5186 20.4259 58.1645 20.4259 67.9116C20.4259 84.0166 33.5336 97.1198 49.644 97.1198C65.7553 97.1198 78.8629 84.0166 78.8629 67.9116C78.8621 58.1645 74.0607 49.5186 66.7015 44.2101Z" fill="#1E90FF"/>
<mask id="path-2-outside-1_0_74" maskUnits="userSpaceOnUse" x="91.1765" y="50.03" width="156" height="28" fill="black">
<rect fill="white" x="91.1765" y="50.03" width="156" height="28"/>
<path d="M94.0861 71.2426H92.1765V51.03H94.0861V59.7046H106.049V51.03H107.959V71.2426H106.049V61.3328H94.0861V71.2426ZM118.013 71.6357C114.306 71.5795 111.273 69.0529 111.273 63.9717C111.273 59.7327 113.519 56.3078 118.013 56.3078C122.562 56.3078 124.752 59.7046 124.752 63.9717C124.752 68.5757 122.085 71.6357 118.013 71.6357ZM122.955 63.9717C122.927 60.5468 121.579 57.8237 118.013 57.8237C114.474 57.8237 113.07 60.8275 113.07 63.9717C113.07 67.5931 114.783 70.1197 118.013 70.1197C121.551 70.1197 122.955 67.0878 122.955 63.9717ZM137.698 64.6174V56.7008H139.383V71.2426H137.698V69.2214C136.8 70.232 135.564 71.6357 133.009 71.6357C129.133 71.6357 127.841 69.3056 127.841 66.2737V56.7008H129.526V66.2456C129.526 68.7441 130.622 70.1197 133.261 70.1197C136.042 70.1197 137.698 67.8177 137.698 64.6174ZM142.725 66.6948H144.438C144.972 69.1933 146.264 70.1197 148.791 70.1197C151.234 70.1197 152.386 68.8283 152.386 67.4247C152.386 63.2137 143.062 66.1895 143.062 60.4626C143.062 58.0483 144.944 56.3078 148.173 56.3078C151.319 56.3078 153.369 57.5991 153.79 60.8837H152.077C151.768 58.6378 150.251 57.8237 148.145 57.8237C146.011 57.8237 144.86 58.8343 144.86 60.3222C144.86 64.2805 154.183 61.8101 154.183 67.3966C154.183 70.1759 151.684 71.6357 148.258 71.6357C144.831 71.6357 142.866 69.446 142.725 66.6948ZM158.536 62.9611H168.028C168.028 60.1257 166.455 57.8237 163.422 57.8237C160.445 57.8237 158.873 60.2099 158.536 62.9611ZM169.825 64.3647H158.536C158.508 67.5089 160.193 70.1197 163.422 70.1197C165.613 70.1197 167.326 68.9126 167.831 66.779H169.713C168.87 69.5302 167.129 71.6357 163.422 71.6357C158.76 71.6357 156.738 68.323 156.738 64.0279C156.738 59.7888 159.266 56.3078 163.422 56.3078C167.41 56.3078 169.853 59.1431 169.825 64.3647ZM185.13 61.2767H183.417C182.827 59.1151 181.339 57.8237 179.092 57.8237C175.638 57.8237 174.206 60.9679 174.206 63.9998C174.206 67.0597 175.61 70.1197 179.092 70.1197C181.592 70.1197 183.164 68.6318 183.557 66.2176H185.355C184.765 69.446 182.743 71.6357 179.092 71.6357C174.459 71.6357 172.409 68.295 172.409 63.9998C172.409 59.9573 174.739 56.3078 179.092 56.3078C182.434 56.3078 184.625 57.9079 185.13 61.2767ZM190.662 71.2426H188.977V51.03H190.662V71.2426ZM196.897 71.2426H195.212V56.7008H196.897V71.2426ZM196.981 53.5285H195.127V51.03H196.981V53.5285ZM212.426 63.9156C212.426 60.631 210.573 57.8237 207.512 57.8237C204.03 57.8237 202.401 60.7714 202.541 64.4209C202.569 68.0704 204.675 70.1197 207.512 70.1197C210.685 70.1197 212.426 67.4247 212.426 63.9156ZM212.426 59.2554V56.7008H214.111V76.9695H212.426V68.9126C211.359 70.6812 209.281 71.6357 207.231 71.6357C202.794 71.6357 200.744 68.0142 200.744 63.9436C200.744 59.6485 202.625 56.3078 207.315 56.3078C209.169 56.3078 211.387 57.3465 212.37 59.2554H212.426ZM228.209 64.6174V56.7008H229.894V71.2426H228.209V69.2214C227.31 70.232 226.074 71.6357 223.519 71.6357C219.644 71.6357 218.352 69.3056 218.352 66.2737V56.7008H220.037V66.2456C220.037 68.7441 221.132 70.1197 223.772 70.1197C226.552 70.1197 228.209 67.8177 228.209 64.6174ZM235.005 62.9611H244.497C244.497 60.1257 242.924 57.8237 239.891 57.8237C236.914 57.8237 235.342 60.2099 235.005 62.9611ZM246.294 64.3647H235.005C234.977 67.5089 236.662 70.1197 239.891 70.1197C242.082 70.1197 243.795 68.9126 244.3 66.779H246.182C245.339 69.5302 243.598 71.6357 239.891 71.6357C235.229 71.6357 233.207 68.323 233.207 64.0279C233.207 59.7888 235.735 56.3078 239.891 56.3078C243.879 56.3078 246.322 59.1431 246.294 64.3647Z"/>
</mask>
<path d="M94.0861 71.2426H92.1765V51.03H94.0861V59.7046H106.049V51.03H107.959V71.2426H106.049V61.3328H94.0861V71.2426ZM118.013 71.6357C114.306 71.5795 111.273 69.0529 111.273 63.9717C111.273 59.7327 113.519 56.3078 118.013 56.3078C122.562 56.3078 124.752 59.7046 124.752 63.9717C124.752 68.5757 122.085 71.6357 118.013 71.6357ZM122.955 63.9717C122.927 60.5468 121.579 57.8237 118.013 57.8237C114.474 57.8237 113.07 60.8275 113.07 63.9717C113.07 67.5931 114.783 70.1197 118.013 70.1197C121.551 70.1197 122.955 67.0878 122.955 63.9717ZM137.698 64.6174V56.7008H139.383V71.2426H137.698V69.2214C136.8 70.232 135.564 71.6357 133.009 71.6357C129.133 71.6357 127.841 69.3056 127.841 66.2737V56.7008H129.526V66.2456C129.526 68.7441 130.622 70.1197 133.261 70.1197C136.042 70.1197 137.698 67.8177 137.698 64.6174ZM142.725 66.6948H144.438C144.972 69.1933 146.264 70.1197 148.791 70.1197C151.234 70.1197 152.386 68.8283 152.386 67.4247C152.386 63.2137 143.062 66.1895 143.062 60.4626C143.062 58.0483 144.944 56.3078 148.173 56.3078C151.319 56.3078 153.369 57.5991 153.79 60.8837H152.077C151.768 58.6378 150.251 57.8237 148.145 57.8237C146.011 57.8237 144.86 58.8343 144.86 60.3222C144.86 64.2805 154.183 61.8101 154.183 67.3966C154.183 70.1759 151.684 71.6357 148.258 71.6357C144.831 71.6357 142.866 69.446 142.725 66.6948ZM158.536 62.9611H168.028C168.028 60.1257 166.455 57.8237 163.422 57.8237C160.445 57.8237 158.873 60.2099 158.536 62.9611ZM169.825 64.3647H158.536C158.508 67.5089 160.193 70.1197 163.422 70.1197C165.613 70.1197 167.326 68.9126 167.831 66.779H169.713C168.87 69.5302 167.129 71.6357 163.422 71.6357C158.76 71.6357 156.738 68.323 156.738 64.0279C156.738 59.7888 159.266 56.3078 163.422 56.3078C167.41 56.3078 169.853 59.1431 169.825 64.3647ZM185.13 61.2767H183.417C182.827 59.1151 181.339 57.8237 179.092 57.8237C175.638 57.8237 174.206 60.9679 174.206 63.9998C174.206 67.0597 175.61 70.1197 179.092 70.1197C181.592 70.1197 183.164 68.6318 183.557 66.2176H185.355C184.765 69.446 182.743 71.6357 179.092 71.6357C174.459 71.6357 172.409 68.295 172.409 63.9998C172.409 59.9573 174.739 56.3078 179.092 56.3078C182.434 56.3078 184.625 57.9079 185.13 61.2767ZM190.662 71.2426H188.977V51.03H190.662V71.2426ZM196.897 71.2426H195.212V56.7008H196.897V71.2426ZM196.981 53.5285H195.127V51.03H196.981V53.5285ZM212.426 63.9156C212.426 60.631 210.573 57.8237 207.512 57.8237C204.03 57.8237 202.401 60.7714 202.541 64.4209C202.569 68.0704 204.675 70.1197 207.512 70.1197C210.685 70.1197 212.426 67.4247 212.426 63.9156ZM212.426 59.2554V56.7008H214.111V76.9695H212.426V68.9126C211.359 70.6812 209.281 71.6357 207.231 71.6357C202.794 71.6357 200.744 68.0142 200.744 63.9436C200.744 59.6485 202.625 56.3078 207.315 56.3078C209.169 56.3078 211.387 57.3465 212.37 59.2554H212.426ZM228.209 64.6174V56.7008H229.894V71.2426H228.209V69.2214C227.31 70.232 226.074 71.6357 223.519 71.6357C219.644 71.6357 218.352 69.3056 218.352 66.2737V56.7008H220.037V66.2456C220.037 68.7441 221.132 70.1197 223.772 70.1197C226.552 70.1197 228.209 67.8177 228.209 64.6174ZM235.005 62.9611H244.497C244.497 60.1257 242.924 57.8237 239.891 57.8237C236.914 57.8237 235.342 60.2099 235.005 62.9611ZM246.294 64.3647H235.005C234.977 67.5089 236.662 70.1197 239.891 70.1197C242.082 70.1197 243.795 68.9126 244.3 66.779H246.182C245.339 69.5302 243.598 71.6357 239.891 71.6357C235.229 71.6357 233.207 68.323 233.207 64.0279C233.207 59.7888 235.735 56.3078 239.891 56.3078C243.879 56.3078 246.322 59.1431 246.294 64.3647Z" fill="#1E90FF"/>
<path d="M94.0861 71.2426H92.1765V51.03H94.0861V59.7046H106.049V51.03H107.959V71.2426H106.049V61.3328H94.0861V71.2426ZM118.013 71.6357C114.306 71.5795 111.273 69.0529 111.273 63.9717C111.273 59.7327 113.519 56.3078 118.013 56.3078C122.562 56.3078 124.752 59.7046 124.752 63.9717C124.752 68.5757 122.085 71.6357 118.013 71.6357ZM122.955 63.9717C122.927 60.5468 121.579 57.8237 118.013 57.8237C114.474 57.8237 113.07 60.8275 113.07 63.9717C113.07 67.5931 114.783 70.1197 118.013 70.1197C121.551 70.1197 122.955 67.0878 122.955 63.9717ZM137.698 64.6174V56.7008H139.383V71.2426H137.698V69.2214C136.8 70.232 135.564 71.6357 133.009 71.6357C129.133 71.6357 127.841 69.3056 127.841 66.2737V56.7008H129.526V66.2456C129.526 68.7441 130.622 70.1197 133.261 70.1197C136.042 70.1197 137.698 67.8177 137.698 64.6174ZM142.725 66.6948H144.438C144.972 69.1933 146.264 70.1197 148.791 70.1197C151.234 70.1197 152.386 68.8283 152.386 67.4247C152.386 63.2137 143.062 66.1895 143.062 60.4626C143.062 58.0483 144.944 56.3078 148.173 56.3078C151.319 56.3078 153.369 57.5991 153.79 60.8837H152.077C151.768 58.6378 150.251 57.8237 148.145 57.8237C146.011 57.8237 144.86 58.8343 144.86 60.3222C144.86 64.2805 154.183 61.8101 154.183 67.3966C154.183 70.1759 151.684 71.6357 148.258 71.6357C144.831 71.6357 142.866 69.446 142.725 66.6948ZM158.536 62.9611H168.028C168.028 60.1257 166.455 57.8237 163.422 57.8237C160.445 57.8237 158.873 60.2099 158.536 62.9611ZM169.825 64.3647H158.536C158.508 67.5089 160.193 70.1197 163.422 70.1197C165.613 70.1197 167.326 68.9126 167.831 66.779H169.713C168.87 69.5302 167.129 71.6357 163.422 71.6357C158.76 71.6357 156.738 68.323 156.738 64.0279C156.738 59.7888 159.266 56.3078 163.422 56.3078C167.41 56.3078 169.853 59.1431 169.825 64.3647ZM185.13 61.2767H183.417C182.827 59.1151 181.339 57.8237 179.092 57.8237C175.638 57.8237 174.206 60.9679 174.206 63.9998C174.206 67.0597 175.61 70.1197 179.092 70.1197C181.592 70.1197 183.164 68.6318 183.557 66.2176H185.355C184.765 69.446 182.743 71.6357 179.092 71.6357C174.459 71.6357 172.409 68.295 172.409 63.9998C172.409 59.9573 174.739 56.3078 179.092 56.3078C182.434 56.3078 184.625 57.9079 185.13 61.2767ZM190.662 71.2426H188.977V51.03H190.662V71.2426ZM196.897 71.2426H195.212V56.7008H196.897V71.2426ZM196.981 53.5285H195.127V51.03H196.981V53.5285ZM212.426 63.9156C212.426 60.631 210.573 57.8237 207.512 57.8237C204.03 57.8237 202.401 60.7714 202.541 64.4209C202.569 68.0704 204.675 70.1197 207.512 70.1197C210.685 70.1197 212.426 67.4247 212.426 63.9156ZM212.426 59.2554V56.7008H214.111V76.9695H212.426V68.9126C211.359 70.6812 209.281 71.6357 207.231 71.6357C202.794 71.6357 200.744 68.0142 200.744 63.9436C200.744 59.6485 202.625 56.3078 207.315 56.3078C209.169 56.3078 211.387 57.3465 212.37 59.2554H212.426ZM228.209 64.6174V56.7008H229.894V71.2426H228.209V69.2214C227.31 70.232 226.074 71.6357 223.519 71.6357C219.644 71.6357 218.352 69.3056 218.352 66.2737V56.7008H220.037V66.2456C220.037 68.7441 221.132 70.1197 223.772 70.1197C226.552 70.1197 228.209 67.8177 228.209 64.6174ZM235.005 62.9611H244.497C244.497 60.1257 242.924 57.8237 239.891 57.8237C236.914 57.8237 235.342 60.2099 235.005 62.9611ZM246.294 64.3647H235.005C234.977 67.5089 236.662 70.1197 239.891 70.1197C242.082 70.1197 243.795 68.9126 244.3 66.779H246.182C245.339 69.5302 243.598 71.6357 239.891 71.6357C235.229 71.6357 233.207 68.323 233.207 64.0279C233.207 59.7888 235.735 56.3078 239.891 56.3078C243.879 56.3078 246.322 59.1431 246.294 64.3647Z" stroke="#1E90FF" mask="url(#path-2-outside-1_0_74)"/>
</svg>
