<svg width="44" height="44" viewBox="0 0 44 44" fill="none" xmlns="http://www.w3.org/2000/svg">
<g clip-path="url(#clip0_0_97)">
<path d="M6.875 27H12.375V31.125C12.375 31.4897 12.2301 31.8394 11.9723 32.0973C11.7144 32.3551 11.3647 32.5 11 32.5H8.25C7.88533 32.5 7.53559 32.3551 7.27773 32.0973C7.01987 31.8394 6.875 31.4897 6.875 31.125V27Z" fill="#77BCFF"/>
<path d="M15.125 44H4.125C3.03098 44 1.98177 43.5654 1.20818 42.7918C0.434597 42.0182 0 40.969 0 39.875L0 28.875C0 27.781 0.434597 26.7318 1.20818 25.9582C1.98177 25.1846 3.03098 24.75 4.125 24.75H15.125C16.219 24.75 17.2682 25.1846 18.0418 25.9582C18.8154 26.7318 19.25 27.781 19.25 28.875V39.875C19.25 40.969 18.8154 42.0182 18.0418 42.7918C17.2682 43.5654 16.219 44 15.125 44ZM4.125 27.5C3.76033 27.5 3.41059 27.6449 3.15273 27.9027C2.89487 28.1606 2.75 28.5103 2.75 28.875V39.875C2.75 40.2397 2.89487 40.5894 3.15273 40.8473C3.41059 41.1051 3.76033 41.25 4.125 41.25H15.125C15.4897 41.25 15.8394 41.1051 16.0973 40.8473C16.3551 40.5894 16.5 40.2397 16.5 39.875V28.875C16.5 28.5103 16.3551 28.1606 16.0973 27.9027C15.8394 27.6449 15.4897 27.5 15.125 27.5H4.125Z" fill="#1E90FF"/>
<path d="M8.25 38.5H6.875C6.51033 38.5 6.16059 38.3551 5.90273 38.0973C5.64487 37.8394 5.5 37.4897 5.5 37.125C5.5 36.7603 5.64487 36.4106 5.90273 36.1527C6.16059 35.8949 6.51033 35.75 6.875 35.75H8.25C8.61467 35.75 8.96441 35.8949 9.22227 36.1527C9.48013 36.4106 9.625 36.7603 9.625 37.125C9.625 37.4897 9.48013 37.8394 9.22227 38.0973C8.96441 38.3551 8.61467 38.5 8.25 38.5Z" fill="#77BCFF"/>
<path d="M31.625 37.125H23.375C23.0103 37.125 22.6606 36.9801 22.4027 36.7223C22.1449 36.4644 22 36.1147 22 35.75C22 35.3853 22.1449 35.0356 22.4027 34.7777C22.6606 34.5199 23.0103 34.375 23.375 34.375H31.625C31.9897 34.375 32.3394 34.2301 32.5973 33.9723C32.8551 33.7144 33 33.3647 33 33V28.875C33 28.5103 33.1449 28.1606 33.4027 27.9027C33.6606 27.6449 34.0103 27.5 34.375 27.5C34.7397 27.5 35.0894 27.6449 35.3473 27.9027C35.6051 28.1606 35.75 28.5103 35.75 28.875V33C35.75 34.094 35.3154 35.1432 34.5418 35.9168C33.7682 36.6904 32.719 37.125 31.625 37.125Z" fill="#1E90FF"/>
<path d="M34.375 24.75C34.1831 24.7495 33.9935 24.7089 33.8182 24.6308C33.643 24.5526 33.4861 24.4387 33.3575 24.2962C32.4775 23.375 24.75 14.5612 24.75 9.625C24.75 7.07229 25.7641 4.62413 27.5691 2.8191C29.3741 1.01406 31.8223 0 34.375 0C36.9277 0 39.3759 1.01406 41.1809 2.8191C42.9859 4.62413 44 7.07229 44 9.625C44 14.5612 36.2725 23.375 35.3925 24.2962C35.2639 24.4387 35.107 24.5526 34.9318 24.6308C34.7565 24.7089 34.5669 24.7495 34.375 24.75ZM34.375 2.75C32.5516 2.75 30.803 3.47433 29.5136 4.76364C28.2243 6.05295 27.5 7.80164 27.5 9.625C27.5 12.2513 31.3775 17.7237 34.375 21.285C37.3725 17.71 41.25 12.2513 41.25 9.625C41.25 7.80164 40.5257 6.05295 39.2364 4.76364C37.947 3.47433 36.1984 2.75 34.375 2.75Z" fill="#1E90FF"/>
<path d="M34.375 12.375C33.8311 12.375 33.2994 12.2137 32.8472 11.9115C32.3949 11.6094 32.0425 11.1799 31.8343 10.6774C31.6262 10.1749 31.5717 9.62195 31.6778 9.0885C31.784 8.55506 32.0459 8.06505 32.4305 7.68046C32.8151 7.29586 33.3051 7.03395 33.8385 6.92784C34.372 6.82173 34.9249 6.87619 35.4274 7.08433C35.9299 7.29247 36.3594 7.64495 36.6615 8.09718C36.9637 8.54942 37.125 9.0811 37.125 9.625C37.125 10.3543 36.8353 11.0538 36.3195 11.5695C35.8038 12.0853 35.1043 12.375 34.375 12.375Z" fill="#77BCFF"/>
</g>
<defs>
<clipPath id="clip0_0_97">
<rect width="44" height="44" fill="white"/>
</clipPath>
</defs>
</svg>
