<svg width="16" height="16" viewBox="0 0 16 16" fill="none" xmlns="http://www.w3.org/2000/svg">
<path d="M10.99 10.9079L11.3638 10.5145L10.4714 9.66693L10.0977 10.0604L10.99 10.9079ZM12.5934 10.3488L14.161 11.2511L14.7749 10.1845L13.2074 9.2822L12.5934 10.3488ZM14.4635 13.1217L13.2979 14.3489L14.1902 15.1964L15.3558 13.9693L14.4635 13.1217ZM12.5966 14.742C11.4192 14.8583 8.34707 14.7591 5.0125 11.2484L4.12015 12.096C7.75436 15.9222 11.2211 16.1146 12.7175 15.9669L12.5966 14.742ZM5.0125 11.2484C1.8322 7.90009 1.29873 5.07578 1.23224 3.837L0.0032861 3.90296C0.0847193 5.42022 0.728948 8.52571 4.12015 12.096L5.0125 11.2484ZM6.14095 5.80276L6.37627 5.555L5.48392 4.70742L5.2486 4.95517L6.14095 5.80276ZM6.56112 2.47038L5.52653 1.00705L4.52161 1.71757L5.55623 3.18089L6.56112 2.47038ZM2.02471 0.691572L0.736874 2.04742L1.62922 2.895L2.91705 1.53916L2.02471 0.691572ZM5.69477 5.37896C5.2486 4.95517 5.24746 4.95637 5.24746 4.95637L5.2463 4.9576C5.24552 4.95844 5.24473 4.95928 5.24392 4.96015C5.24231 4.96189 5.24063 4.9637 5.23891 4.9656C5.23547 4.96938 5.23182 4.97348 5.22798 4.97789C5.22031 4.98672 5.21188 4.99681 5.20286 5.00821C5.18482 5.031 5.16442 5.05901 5.14301 5.09246C5.10009 5.15954 5.05354 5.24788 5.01411 5.35866C4.93395 5.58394 4.89027 5.88227 4.94486 6.25483C5.0521 6.98681 5.53173 7.97115 6.78487 9.29049L7.23105 8.86671L7.67723 8.44293C6.5059 7.20965 6.21735 6.45013 6.16258 6.07641C6.13616 5.89611 6.16301 5.8011 6.17362 5.77127C6.17959 5.7545 6.18349 5.74984 6.17967 5.75581C6.17782 5.7587 6.17413 5.76413 6.16793 5.77197C6.16482 5.7759 6.16109 5.78042 6.15662 5.78556C6.15439 5.78812 6.15197 5.79084 6.14937 5.79371C6.14807 5.79514 6.14671 5.79661 6.14531 5.79812L6.14317 5.80041L6.14207 5.80158C6.14207 5.80158 6.14095 5.80276 5.69477 5.37896ZM6.78487 9.29049C8.03439 10.606 8.97803 11.1231 9.698 11.24C10.0675 11.3 10.3665 11.2521 10.593 11.1628C10.7037 11.1192 10.7912 11.0679 10.8569 11.0213C10.8898 10.998 10.9171 10.9759 10.9391 10.9566C10.9501 10.947 10.9598 10.9379 10.9683 10.9297C10.9725 10.9257 10.9765 10.9218 10.9801 10.9182C10.9819 10.9164 10.9836 10.9146 10.9853 10.9128C10.9861 10.912 10.9869 10.9112 10.9877 10.9104L10.9889 10.9091C10.9889 10.9091 10.99 10.9079 10.5438 10.4841C10.0977 10.0604 10.0988 10.0592 10.0988 10.0592L10.0999 10.058L10.1021 10.0558C10.1036 10.0543 10.105 10.0528 10.1063 10.0514C10.1091 10.0487 10.1117 10.0461 10.1142 10.0437C10.1191 10.0389 10.1236 10.0348 10.1275 10.0314C10.1353 10.0245 10.1411 10.0201 10.1449 10.0174C10.1526 10.0119 10.1518 10.0138 10.1414 10.0179C10.1256 10.0242 10.051 10.0505 9.89533 10.0252C9.565 9.97157 8.85233 9.68006 7.67723 8.44293L7.23105 8.86671L6.78487 9.29049ZM5.52653 1.00705C4.6949 -0.169184 3.03077 -0.367626 2.02471 0.691572L2.91705 1.53916C3.34603 1.08752 4.10123 1.123 4.52161 1.71757L5.52653 1.00705ZM1.23224 3.837C1.21466 3.50938 1.35732 3.18126 1.62922 2.895L0.736874 2.04742C0.297217 2.51029 -0.0369505 3.1533 0.0032861 3.90296L1.23224 3.837ZM13.2979 14.3489C13.069 14.5899 12.8295 14.7191 12.5966 14.742L12.7175 15.9669C13.3305 15.9063 13.8265 15.5794 14.1902 15.1964L13.2979 14.3489ZM6.37627 5.555C7.17017 4.71919 7.22637 3.4112 6.56112 2.47038L5.55623 3.18089C5.90259 3.67077 5.84948 4.32255 5.48392 4.70742L6.37627 5.555ZM14.161 11.2511C14.8344 11.6388 14.9663 12.5925 14.4635 13.1217L15.3558 13.9693C16.4265 12.842 16.1147 10.9557 14.7749 10.1845L14.161 11.2511ZM11.3638 10.5145C11.68 10.1815 12.1728 10.1067 12.5934 10.3488L13.2074 9.2822C12.3061 8.76341 11.1883 8.91216 10.4714 9.66693L11.3638 10.5145Z" fill="#333333"/>
</svg>
