<svg width="65" height="64" viewBox="0 0 65 64" fill="none" xmlns="http://www.w3.org/2000/svg">
<g clip-path="url(#clip0_0_378)">
<path d="M20.0933 59.1864C18.8623 59.1864 17.0652 58.5835 13.0733 54.1157C11.0444 51.8451 9.38168 49.6116 9.31193 49.5176C9.26493 49.4543 9.2223 49.3881 9.18405 49.3193C8.42493 47.9528 8.02368 46.4041 8.02368 44.8408V33.4795C8.02368 32.4889 8.82668 31.6858 9.81743 31.6858H24.3268C26.4048 31.6858 28.3649 32.4884 29.8461 33.9459L37.2755 41.2565C39.4277 43.4088 39.4277 46.8943 37.2859 49.0364C37.2826 49.0396 37.2676 49.0545 37.2645 49.0575C36.2361 50.0859 34.8565 50.6573 33.389 50.6573C31.9216 50.6573 30.5419 50.0858 29.5043 49.0481L22.083 41.6266C21.3469 41.6211 20.1518 41.6155 19.1972 41.6113L17.8388 41.6048C16.8482 41.5995 16.0492 40.7924 16.0544 39.8018C16.0597 38.8144 16.8615 38.0174 17.8479 38.0174C17.8512 38.0174 17.8542 38.0174 17.8574 38.0174L19.2137 38.0239C20.0617 38.0277 20.9684 38.032 21.6642 38.0363C22.0152 38.0384 22.3129 38.0408 22.5237 38.0433C23.0435 38.049 23.5813 38.0549 24.1009 38.5712L32.041 46.5113C32.401 46.8713 32.8798 47.0696 33.389 47.0696C33.8984 47.0696 34.3771 46.8714 34.7371 46.5113C34.7404 46.508 34.7554 46.4931 34.7585 46.4901C35.4926 45.756 35.4926 44.5465 34.7491 43.8031L27.33 36.5028C26.5241 35.7098 25.4575 35.273 24.3268 35.273H11.611V44.8406C11.611 45.7578 11.837 46.6668 12.2655 47.4766C12.5924 47.9101 13.9637 49.7091 15.5742 51.5295C18.7587 55.1291 19.9755 55.5555 20.1373 55.5987L39.5309 55.595C40.8529 55.595 42.3936 54.9027 43.8585 54.1937C45.0951 53.5954 54.2752 47.3685 59.7715 43.5841C59.8015 43.5635 59.8321 43.5438 59.8633 43.5249C60.8882 42.9075 61.22 41.571 60.6025 40.5455C60.3036 40.0491 59.8288 39.6988 59.2663 39.559C58.7145 39.422 58.1427 39.5039 57.6526 39.7893L44.2544 48.6745C43.4289 49.222 42.3156 48.9963 41.7682 48.171C41.2206 47.3454 41.4461 46.2323 42.2719 45.6848L55.7072 36.7748C55.7287 36.7604 55.7508 36.7464 55.7731 36.7332C57.0907 35.9398 58.6383 35.7068 60.1307 36.0774C61.6235 36.448 62.8825 37.3777 63.6759 38.6949C65.3032 41.3976 64.4442 44.9154 61.7653 46.5668C60.1033 47.7108 47.2941 56.5164 45.4215 57.4226C43.582 58.3129 41.612 59.1821 39.5315 59.1821L20.0943 59.1859C20.0939 59.1864 20.0935 59.1864 20.0933 59.1864Z" fill="#646464"/>
<path d="M12.8119 31.2769H2.2937V54.9752H12.8119V31.2769Z" fill="#646464"/>
<path d="M12.3468 57H2.65323C1.74021 57 1 56.176 1 55.1593V30.8407C1 29.8242 1.74009 29 2.65323 29H12.3468C13.2598 29 14 29.824 14 30.8407V55.159C14 56.1757 13.2598 57 12.3468 57ZM4.30634 53.3185H10.6935V32.6815H4.30634V53.3185Z" fill="#646464"/>
<path d="M52.0749 29.2321C51.5831 29.2321 51.0893 29.1092 50.6472 28.8769L44.5712 25.6827L38.4952 28.8771C38.0532 29.1093 37.5595 29.2322 37.0675 29.2322C36.162 29.2322 35.3055 28.8322 34.7172 28.1346C34.1361 27.4451 33.8907 26.5369 34.0438 25.643L35.2043 18.8771L30.2889 14.0857C29.4465 13.2646 29.1491 12.0596 29.5125 10.9409C29.8761 9.82211 30.825 9.02198 31.9891 8.85286L38.7822 7.86574L41.8202 1.71012C42.341 0.655249 43.3951 0 44.5713 0C45.7478 0 46.8019 0.655249 47.3224 1.71025L50.3604 7.86574L57.1537 8.85286C58.3176 9.02198 59.2664 9.82198 59.6301 10.9409C59.9937 12.0596 59.6961 13.2646 58.8539 14.0857L53.9384 18.8771L55.0988 25.6427C55.2522 26.5364 55.0068 27.4447 54.4257 28.1342C53.8373 28.8321 52.9806 29.2321 52.0749 29.2321ZM44.5712 21.8625C44.8581 21.8625 45.1445 21.9312 45.4058 22.0686L51.3848 25.2117L50.2429 18.5542C50.1432 17.9723 50.3362 17.3786 50.7588 16.9666L55.5959 12.2517L48.9112 11.2802C48.3269 11.1954 47.8221 10.8284 47.5607 10.2991L44.5712 4.24174L41.5818 10.299C41.3205 10.8284 40.8156 11.1954 40.2313 11.2801L33.5467 12.2516L38.3838 16.9663C38.8065 17.3786 38.9995 17.9721 38.8997 18.5541L37.7578 25.2116L43.7366 22.0685C43.998 21.9312 44.2846 21.8625 44.5712 21.8625Z" fill="#646464"/>
</g>
<defs>
<clipPath id="clip0_0_378">
<rect width="64" height="64" fill="white" transform="translate(0.5)"/>
</clipPath>
</defs>
</svg>
