<svg width="20" height="12" viewBox="0 0 20 12" fill="none" xmlns="http://www.w3.org/2000/svg">
<path d="M13.125 6.37497C12.7553 6.37332 12.3944 6.26243 12.0875 6.05622L9.03128 4.01872C8.91 3.92103 8.82956 3.78159 8.80571 3.6277C8.78187 3.47381 8.81633 3.31656 8.90235 3.18675C8.98837 3.05693 9.11975 2.96391 9.27076 2.92589C9.42178 2.88788 9.58155 2.90761 9.71878 2.98122L12.7813 5.01872C12.8833 5.08592 13.0028 5.12174 13.125 5.12174C13.2472 5.12174 13.3667 5.08592 13.4688 5.01872L16.5313 2.98122C16.6685 2.90761 16.8283 2.88788 16.9793 2.92589C17.1303 2.96391 17.2617 3.05693 17.3477 3.18675C17.4337 3.31656 17.4682 3.47381 17.4443 3.6277C17.4205 3.78159 17.3401 3.92103 17.2188 4.01872L14.1625 6.05622C13.8557 6.26243 13.4947 6.37332 13.125 6.37497Z" fill="white"/>
<path d="M18.125 11.625H8.125C7.62772 11.625 7.15081 11.4275 6.79917 11.0758C6.44754 10.7242 6.25 10.2473 6.25 9.75V2.25C6.25 1.75272 6.44754 1.27581 6.79917 0.924175C7.15081 0.572544 7.62772 0.375 8.125 0.375H18.125C18.6223 0.375 19.0992 0.572544 19.4508 0.924175C19.8025 1.27581 20 1.75272 20 2.25V9.75C20 10.2473 19.8025 10.7242 19.4508 11.0758C19.0992 11.4275 18.6223 11.625 18.125 11.625ZM8.125 1.625C7.95924 1.625 7.80027 1.69085 7.68306 1.80806C7.56585 1.92527 7.5 2.08424 7.5 2.25V9.75C7.5 9.91576 7.56585 10.0747 7.68306 10.1919C7.80027 10.3092 7.95924 10.375 8.125 10.375H18.125C18.2908 10.375 18.4497 10.3092 18.5669 10.1919C18.6842 10.0747 18.75 9.91576 18.75 9.75V2.25C18.75 2.08424 18.6842 1.92527 18.5669 1.80806C18.4497 1.69085 18.2908 1.625 18.125 1.625H8.125Z" fill="white"/>
<path d="M4.375 7.875H3.125C2.95924 7.875 2.80027 7.80915 2.68306 7.69194C2.56585 7.57473 2.5 7.41576 2.5 7.25C2.5 7.08424 2.56585 6.92527 2.68306 6.80806C2.80027 6.69085 2.95924 6.625 3.125 6.625H4.375C4.54076 6.625 4.69973 6.69085 4.81694 6.80806C4.93415 6.92527 5 7.08424 5 7.25C5 7.41576 4.93415 7.57473 4.81694 7.69194C4.69973 7.80915 4.54076 7.875 4.375 7.875Z" fill="white"/>
<path d="M4.375 5.375H1.875C1.70924 5.375 1.55027 5.30915 1.43306 5.19194C1.31585 5.07473 1.25 4.91576 1.25 4.75C1.25 4.58424 1.31585 4.42527 1.43306 4.30806C1.55027 4.19085 1.70924 4.125 1.875 4.125H4.375C4.54076 4.125 4.69973 4.19085 4.81694 4.30806C4.93415 4.42527 5 4.58424 5 4.75C5 4.91576 4.93415 5.07473 4.81694 5.19194C4.69973 5.30915 4.54076 5.375 4.375 5.375Z" fill="white"/>
<path d="M4.375 2.875H0.625C0.45924 2.875 0.300269 2.80915 0.183058 2.69194C0.065848 2.57473 0 2.41576 0 2.25C0 2.08424 0.065848 1.92527 0.183058 1.80806C0.300269 1.69085 0.45924 1.625 0.625 1.625H4.375C4.54076 1.625 4.69973 1.69085 4.81694 1.80806C4.93415 1.92527 5 2.08424 5 2.25C5 2.41576 4.93415 2.57473 4.81694 2.69194C4.69973 2.80915 4.54076 2.875 4.375 2.875Z" fill="white"/>
</svg>
