<svg width="16" height="18" viewBox="0 0 16 18" fill="none" xmlns="http://www.w3.org/2000/svg">
<path d="M7.125 12.5555C7.125 11.7271 7.125 11.313 7.25817 10.9863C7.4358 10.5507 7.77653 10.2046 8.20528 10.0241C8.52693 9.88883 8.93459 9.88883 9.75 9.88883H12.2C13.1801 9.88883 13.6702 9.88883 14.0445 9.69505C14.3738 9.52465 14.6415 9.25265 14.8092 8.91816C15 8.53789 15 8.04003 15 7.04438V6.51105C15 5.5154 15 5.01757 14.8092 4.63729C14.6415 4.30277 14.3738 4.03081 14.0445 3.86037C13.6702 3.66661 13.1801 3.66661 12.2 3.66661H11.5M11.5 3.66661C11.5 4.49494 11.5 4.90911 11.3668 5.23582C11.1892 5.67142 10.8485 6.01751 10.4197 6.19795C10.0981 6.33327 9.69041 6.33327 8.875 6.33327H3.625C2.80961 6.33327 2.40191 6.33327 2.0803 6.19795C1.65151 6.01751 1.31083 5.67142 1.13321 5.23582C1 4.90911 1 4.49494 1 3.66661C1 2.83827 1 2.4241 1.13321 2.09739C1.31083 1.66179 1.65151 1.3157 2.0803 1.13526C2.40191 0.999939 2.80961 0.999939 3.625 0.999939H8.875C9.69041 0.999939 10.0981 0.999939 10.4197 1.13526C10.8485 1.3157 11.1892 1.66179 11.3668 2.09739C11.5 2.4241 11.5 2.83827 11.5 3.66661ZM6.775 16.9999H7.475C7.96509 16.9999 8.21009 16.9999 8.39725 16.9031C8.56193 16.8178 8.69571 16.6819 8.77962 16.5146C8.875 16.3245 8.875 16.0756 8.875 15.5777V13.9777C8.875 13.4799 8.875 13.231 8.77962 13.0408C8.69571 12.8735 8.56193 12.7376 8.39725 12.6524C8.21009 12.5555 7.96509 12.5555 7.475 12.5555H6.775C6.28491 12.5555 6.03993 12.5555 5.85276 12.6524C5.68812 12.7376 5.55426 12.8735 5.47037 13.0408C5.375 13.231 5.375 13.4799 5.375 13.9777V15.5777C5.375 16.0756 5.375 16.3245 5.47037 16.5146C5.55426 16.6819 5.68812 16.8178 5.85276 16.9031C6.03993 16.9999 6.28491 16.9999 6.775 16.9999Z" stroke="#FEFEFE" stroke-width="1.5" stroke-linecap="round" stroke-linejoin="round"/>
</svg>
