<svg width="21" height="20" viewBox="0 0 21 20" fill="none" xmlns="http://www.w3.org/2000/svg">
<path d="M12.0158 20H5.50327C4.70979 19.9983 3.94927 19.6824 3.38819 19.1213C2.82712 18.5602 2.51117 17.7997 2.50952 17.0062V2.99375C2.51117 2.20027 2.82712 1.43975 3.38819 0.878673C3.94927 0.317594 4.70979 0.00165138 5.50327 0L12.0158 0C12.8093 0.00165138 13.5698 0.317594 14.1308 0.878673C14.6919 1.43975 15.0079 2.20027 15.0095 2.99375V3.125C15.0095 3.29076 14.9437 3.44973 14.8265 3.56694C14.7093 3.68415 14.5503 3.75 14.3845 3.75C14.2188 3.75 14.0598 3.68415 13.9426 3.56694C13.8254 3.44973 13.7595 3.29076 13.7595 3.125V2.99375C13.7595 2.53128 13.5758 2.08775 13.2488 1.76073C12.9218 1.43372 12.4782 1.25 12.0158 1.25H5.50327C5.0408 1.25 4.59727 1.43372 4.27025 1.76073C3.94324 2.08775 3.75952 2.53128 3.75952 2.99375V17.0062C3.75952 17.4687 3.94324 17.9123 4.27025 18.2393C4.59727 18.5663 5.0408 18.75 5.50327 18.75H12.0158C12.4782 18.75 12.9218 18.5663 13.2488 18.2393C13.5758 17.9123 13.7595 17.4687 13.7595 17.0062V15.625C13.7595 15.4592 13.8254 15.3003 13.9426 15.1831C14.0598 15.0658 14.2188 15 14.3845 15C14.5503 15 14.7093 15.0658 14.8265 15.1831C14.9437 15.3003 15.0095 15.4592 15.0095 15.625V17.0062C15.0079 17.7997 14.6919 18.5602 14.1308 19.1213C13.5698 19.6824 12.8093 19.9983 12.0158 20Z" fill="white"/>
<path d="M8.75952 17.5C8.5123 17.5 8.27062 17.4267 8.06506 17.2893C7.8595 17.152 7.69928 16.9568 7.60467 16.7284C7.51006 16.4999 7.48531 16.2486 7.53354 16.0061C7.58177 15.7637 7.70082 15.5409 7.87564 15.3661C8.05045 15.1913 8.27318 15.0723 8.51566 15.024C8.75814 14.9758 9.00947 15.0005 9.23788 15.0952C9.46628 15.1898 9.66151 15.35 9.79886 15.5555C9.93621 15.7611 10.0095 16.0028 10.0095 16.25C10.0095 16.5815 9.87783 16.8995 9.64341 17.1339C9.40899 17.3683 9.09104 17.5 8.75952 17.5Z" fill="#B6D6FF"/>
<path d="M10.6345 3.75H6.88452C6.71876 3.75 6.55979 3.68415 6.44258 3.56694C6.32537 3.44973 6.25952 3.29076 6.25952 3.125C6.25952 2.95924 6.32537 2.80027 6.44258 2.68306C6.55979 2.56585 6.71876 2.5 6.88452 2.5H10.6345C10.8003 2.5 10.9593 2.56585 11.0765 2.68306C11.1937 2.80027 11.2595 2.95924 11.2595 3.125C11.2595 3.29076 11.1937 3.44973 11.0765 3.56694C10.9593 3.68415 10.8003 3.75 10.6345 3.75Z" fill="white"/>
<path d="M15.0095 5H13.7595C13.4143 5 13.1345 5.27982 13.1345 5.625V7.5C13.1345 7.84518 13.4143 8.125 13.7595 8.125H15.0095C15.3547 8.125 15.6345 7.84518 15.6345 7.5V5.625C15.6345 5.27982 15.3547 5 15.0095 5Z" fill="#B6D6FF"/>
<path d="M16.8845 13.75H11.8845C11.3872 13.75 10.9103 13.5525 10.5587 13.2008C10.2071 12.8492 10.0095 12.3723 10.0095 11.875V6.875C10.0095 6.37772 10.2071 5.90081 10.5587 5.54917C10.9103 5.19754 11.3872 5 11.8845 5H16.8845C17.3818 5 17.8587 5.19754 18.2103 5.54917C18.562 5.90081 18.7595 6.37772 18.7595 6.875V11.875C18.7595 12.3723 18.562 12.8492 18.2103 13.2008C17.8587 13.5525 17.3818 13.75 16.8845 13.75ZM11.8845 6.25C11.7188 6.25 11.5598 6.31585 11.4426 6.43306C11.3254 6.55027 11.2595 6.70924 11.2595 6.875V11.875C11.2595 12.0408 11.3254 12.1997 11.4426 12.3169C11.5598 12.4342 11.7188 12.5 11.8845 12.5H16.8845C17.0503 12.5 17.2093 12.4342 17.3265 12.3169C17.4437 12.1997 17.5095 12.0408 17.5095 11.875V6.875C17.5095 6.70924 17.4437 6.55027 17.3265 6.43306C17.2093 6.31585 17.0503 6.25 16.8845 6.25H11.8845Z" fill="white"/>
<path d="M13.7595 11.25H13.1345C12.9688 11.25 12.8098 11.1842 12.6926 11.0669C12.5754 10.9497 12.5095 10.7908 12.5095 10.625C12.5095 10.4592 12.5754 10.3003 12.6926 10.1831C12.8098 10.0658 12.9688 10 13.1345 10H13.7595C13.9253 10 14.0843 10.0658 14.2015 10.1831C14.3187 10.3003 14.3845 10.4592 14.3845 10.625C14.3845 10.7908 14.3187 10.9497 14.2015 11.0669C14.0843 11.1842 13.9253 11.25 13.7595 11.25Z" fill="white"/>
</svg>
