<svg width="17" height="16" viewBox="0 0 17 16" fill="none" xmlns="http://www.w3.org/2000/svg">
<path fill-rule="evenodd" clip-rule="evenodd" d="M14.1677 9.68481C13.8261 10.0147 13.6709 10.4902 13.7509 10.9564L14.2669 13.9401C14.4277 14.8688 13.6837 15.6231 12.8397 15.6231C12.6173 15.6231 12.3877 15.5705 12.1653 15.4547L9.46527 14.046C9.25407 13.9362 9.02287 13.8814 8.79087 13.8814C8.55967 13.8814 8.32847 13.9362 8.11727 14.046L5.41727 15.4547C5.19487 15.5705 4.96527 15.6231 4.74287 15.6231C3.89886 15.6231 3.15487 14.8688 3.31567 13.9401L3.83167 10.9564C3.91167 10.4902 3.75647 10.0147 3.41487 9.68481L1.23006 7.57206C0.370862 6.74082 0.845264 5.29244 2.03247 5.12101L5.05167 4.68597C5.52367 4.61816 5.93167 4.32406 6.14207 3.89968L7.49247 1.18577C7.75807 0.651673 8.27487 0.38501 8.79087 0.38501C9.30767 0.38501 9.82447 0.651673 10.0901 1.18577L11.4405 3.89968C11.6509 4.32406 12.0589 4.61816 12.5309 4.68597L15.5501 5.12101C16.7373 5.29244 17.2117 6.74082 16.3525 7.57206L14.1677 9.68481Z" fill="#F2B340"/>
</svg>
