<svg width="16" height="15" viewBox="0 0 16 15" fill="none" xmlns="http://www.w3.org/2000/svg">
<path d="M2.63013 0.876709H6.13698V3.12548C6.13698 3.22662 6.0834 3.32362 5.98804 3.39515C5.89268 3.46667 5.76334 3.50685 5.62848 3.50685H3.13862C3.00376 3.50685 2.87442 3.46667 2.77906 3.39515C2.6837 3.32362 2.63013 3.22662 2.63013 3.12548V0.876709Z" fill="white"/>
<path d="M4.179 9.64384H1.60731C1.18102 9.64384 0.772197 9.47449 0.470769 9.17307C0.169341 8.87164 0 8.46281 0 8.03653L0 1.60731C0 1.18102 0.169341 0.772197 0.470769 0.470769C0.772197 0.169341 1.18102 0 1.60731 0L8.03653 0C8.46281 0 8.87164 0.169341 9.17307 0.470769C9.47449 0.772197 9.64384 1.18102 9.64384 1.60731V3.32177C9.64384 3.46386 9.58739 3.60013 9.48691 3.70061C9.38644 3.80109 9.25016 3.85753 9.10807 3.85753C8.96597 3.85753 8.8297 3.80109 8.72922 3.70061C8.62874 3.60013 8.5723 3.46386 8.5723 3.32177V1.60731C8.5723 1.46521 8.51585 1.32894 8.41537 1.22846C8.3149 1.12798 8.17862 1.07154 8.03653 1.07154H1.60731C1.46521 1.07154 1.32894 1.12798 1.22846 1.22846C1.12798 1.32894 1.07154 1.46521 1.07154 1.60731V8.03653C1.07154 8.17862 1.12798 8.3149 1.22846 8.41537C1.32894 8.51585 1.46521 8.5723 1.60731 8.5723H4.179C4.32109 8.5723 4.45736 8.62874 4.55784 8.72922C4.65832 8.8297 4.71476 8.96597 4.71476 9.10807C4.71476 9.25016 4.65832 9.38644 4.55784 9.48691C4.45736 9.58739 4.32109 9.64384 4.179 9.64384Z" fill="white"/>
<path d="M4.27396 6.79462H3.17807C3.03275 6.79462 2.89338 6.73689 2.79062 6.63413C2.68786 6.53137 2.63013 6.392 2.63013 6.24668C2.63013 6.10135 2.68786 5.96198 2.79062 5.85922C2.89338 5.75646 3.03275 5.69873 3.17807 5.69873H4.27396C4.41929 5.69873 4.55866 5.75646 4.66142 5.85922C4.76418 5.96198 4.82191 6.10135 4.82191 6.24668C4.82191 6.392 4.76418 6.53137 4.66142 6.63413C4.55866 6.73689 4.41929 6.79462 4.27396 6.79462Z" fill="white"/>
<path d="M11.0685 14.685C10.0931 14.685 9.13966 14.3958 8.32867 13.8539C7.51769 13.312 6.88561 12.5419 6.51235 11.6407C6.1391 10.7396 6.04144 9.74806 6.23172 8.79144C6.42201 7.83482 6.89169 6.95611 7.58137 6.26643C8.27105 5.57675 9.14976 5.10706 10.1064 4.91678C11.063 4.7265 12.0546 4.82416 12.9557 5.19741C13.8568 5.57067 14.627 6.20275 15.1689 7.01373C15.7107 7.82471 16 8.77817 16 9.75353C16 11.0614 15.4804 12.3158 14.5556 13.2406C13.6307 14.1655 12.3764 14.685 11.0685 14.685ZM11.0685 5.91791C10.3099 5.91791 9.56828 6.14287 8.93752 6.56433C8.30675 6.98579 7.81513 7.58484 7.52482 8.2857C7.23452 8.98657 7.15856 9.75778 7.30656 10.5018C7.45455 11.2459 7.81986 11.9293 8.35628 12.4657C8.8927 13.0021 9.57614 13.3674 10.3202 13.5154C11.0642 13.6634 11.8354 13.5875 12.5363 13.2972C13.2372 13.0069 13.8362 12.5152 14.2577 11.8845C14.6791 11.2537 14.9041 10.5121 14.9041 9.75353C14.9041 8.73626 14.5 7.76066 13.7807 7.04134C13.0613 6.32202 12.0857 5.91791 11.0685 5.91791Z" fill="white"/>
<path d="M9.42466 11.9452C9.35254 11.9456 9.28106 11.9318 9.2143 11.9045C9.14754 11.8772 9.08682 11.8371 9.03562 11.7863C8.98426 11.7353 8.94349 11.6747 8.91568 11.608C8.88786 11.5412 8.87354 11.4696 8.87354 11.3972C8.87354 11.3249 8.88786 11.2533 8.91568 11.1865C8.94349 11.1197 8.98426 11.0591 9.03562 11.0082L10.5205 9.52874V7.56162C10.5205 7.41629 10.5783 7.27692 10.681 7.17416C10.7838 7.0714 10.9232 7.01367 11.0685 7.01367C11.2138 7.01367 11.3532 7.0714 11.4559 7.17416C11.5587 7.27692 11.6164 7.41629 11.6164 7.56162V9.7534C11.6169 9.82551 11.603 9.897 11.5758 9.96376C11.5485 10.0305 11.5083 10.0912 11.4575 10.1424L9.8137 11.7863C9.7625 11.8371 9.70178 11.8772 9.63502 11.9045C9.56826 11.9318 9.49677 11.9456 9.42466 11.9452Z" fill="white"/>
</svg>
