<svg width="60" height="64" viewBox="0 0 60 64" fill="none" xmlns="http://www.w3.org/2000/svg">
<g clip-path="url(#clip0_0_446)">
<path d="M2.01038 43.1021V45.7143C2.01038 50.64 2.01038 53.1028 3.50504 54.633C4.99971 56.1633 7.40526 56.1633 12.2164 56.1633H16.0436M16.0436 56.1633L9.66487 50.9388M16.0436 56.1633L9.66487 61.3878" stroke="#646464" stroke-width="3" stroke-linecap="round" stroke-linejoin="round"/>
<path d="M38.7215 40.5465L39.8837 39.294L37.1087 36.5955L35.9465 37.8481L38.7215 40.5465ZM43.7076 38.7666L48.5823 41.6392L50.4916 38.2433L45.6169 35.3706L43.7076 38.7666ZM49.523 47.5949L45.8984 51.5018L48.6734 54.2002L52.298 50.2933L49.523 47.5949ZM43.7176 52.7536C40.0562 53.1237 30.5026 52.8079 20.133 41.6306L17.358 44.3291C28.6594 56.5107 39.44 57.1233 44.0934 56.6531L43.7176 52.7536ZM20.133 41.6306C10.2431 30.9703 8.58414 21.9783 8.37736 18.0343L4.55563 18.2443C4.80887 23.075 6.81225 32.9621 17.358 44.3291L20.133 41.6306ZM23.6422 24.2929L24.3739 23.5041L21.599 20.8055L20.8672 21.5943L23.6422 24.2929ZM24.9488 13.6833L21.7315 9.0244L18.6064 11.2865L21.8238 15.9454L24.9488 13.6833ZM10.8417 8.01999L6.8369 12.3367L9.61185 15.0352L13.6167 10.7185L10.8417 8.01999ZM22.2547 22.9436C20.8672 21.5943 20.8636 21.5981 20.8636 21.5981L20.86 21.6021C20.8576 21.6047 20.8551 21.6074 20.8526 21.6102C20.8476 21.6157 20.8424 21.6215 20.8371 21.6275C20.8264 21.6396 20.815 21.6526 20.8031 21.6667C20.7792 21.6948 20.753 21.7269 20.7249 21.7632C20.6689 21.8358 20.6054 21.9249 20.5388 22.0314C20.4054 22.245 20.2606 22.5263 20.138 22.879C19.8887 23.5962 19.7529 24.546 19.9226 25.7322C20.2561 28.0626 21.7476 31.1965 25.6446 35.397L27.0321 34.0478L28.4196 32.6986C24.7771 28.7721 23.8797 26.3539 23.7094 25.1641C23.6273 24.5901 23.7108 24.2876 23.7438 24.1926C23.7623 24.1392 23.7745 24.1244 23.7626 24.1434C23.7568 24.1526 23.7453 24.1699 23.7261 24.1949C23.7164 24.2073 23.7048 24.2218 23.6909 24.2381C23.684 24.2463 23.6764 24.2549 23.6683 24.264C23.6643 24.2686 23.6601 24.2733 23.6557 24.2781L23.6491 24.2854L23.6456 24.2891C23.6456 24.2891 23.6422 24.2929 22.2547 22.9436ZM25.6446 35.397C29.5303 39.5852 32.4647 41.2317 34.7037 41.604C35.8526 41.7949 36.7826 41.6424 37.4868 41.3582C37.831 41.2192 38.1033 41.0559 38.3077 40.9075C38.4097 40.8334 38.4947 40.7631 38.5631 40.7017C38.5975 40.6709 38.6276 40.6421 38.6539 40.616C38.6672 40.6032 38.6794 40.5907 38.6906 40.5792C38.6962 40.5734 38.7016 40.5677 38.7067 40.5622C38.7093 40.5596 38.7118 40.557 38.7144 40.5544L38.7179 40.5505C38.7179 40.5505 38.7215 40.5465 37.334 39.1973C35.9465 37.8481 35.9501 37.8444 35.9501 37.8444L35.9534 37.8405L35.9603 37.8335C35.9649 37.8288 35.9692 37.8241 35.9733 37.8196C35.982 37.811 35.9901 37.8026 35.9978 37.7951C36.0131 37.7799 36.0271 37.7668 36.0394 37.7559C36.0636 37.7339 36.0817 37.7198 36.0935 37.7115C36.1175 37.694 36.1149 37.7 36.0825 37.713C36.0333 37.7329 35.8013 37.8167 35.3173 37.7363C34.2901 37.5654 32.0738 36.6373 28.4196 32.6986L27.0321 34.0478L25.6446 35.397ZM21.7315 9.0244C19.1453 5.27953 13.9703 4.64774 10.8417 8.01999L13.6167 10.7185C14.9507 9.2806 17.2992 9.39356 18.6064 11.2865L21.7315 9.0244ZM8.37736 18.0343C8.32268 16.9912 8.76631 15.9466 9.61185 15.0352L6.8369 12.3367C5.46968 13.8104 4.4305 15.8576 4.55563 18.2443L8.37736 18.0343ZM45.8984 51.5018C45.1865 52.2692 44.4417 52.6804 43.7176 52.7536L44.0934 56.6531C45.9997 56.4603 47.5423 55.4196 48.6734 54.2002L45.8984 51.5018ZM24.3739 23.5041C26.8428 20.843 27.0175 16.6787 24.9488 13.6833L21.8238 15.9454C22.9009 17.5051 22.7358 19.5802 21.599 20.8055L24.3739 23.5041ZM48.5823 41.6392C50.6765 42.8735 51.0866 45.9097 49.523 47.5949L52.298 50.2933C55.6275 46.7044 54.6579 40.6986 50.4916 38.2433L48.5823 41.6392ZM39.8837 39.294C40.8671 38.2339 42.3995 37.9957 43.7076 38.7666L45.6169 35.3706C42.8141 33.7189 39.3379 34.1925 37.1087 36.5955L39.8837 39.294Z" fill="#646464"/>
<path d="M35.0908 14.2678L35.0908 23.5597" stroke="#646464" stroke-width="3" stroke-linecap="round"/>
<path d="M35.4854 23.5599H44.1665" stroke="#646464" stroke-width="3" stroke-linecap="round"/>
<path d="M51.9059 23.3221H57.0798" stroke="#646464" stroke-width="3" stroke-linecap="round"/>
<path d="M35.0908 7.7829V2.60903" stroke="#646464" stroke-width="3" stroke-linecap="round"/>
<path d="M49.319 15.5526L53.7729 12.9199" stroke="#646464" stroke-width="3" stroke-linecap="round"/>
<path d="M42.8517 9.33261L45.3931 4.82594" stroke="#646464" stroke-width="3" stroke-linecap="round"/>
</g>
<defs>
<clipPath id="clip0_0_446">
<rect width="59.6364" height="64" fill="white" transform="translate(0.181763)"/>
</clipPath>
</defs>
</svg>
