<svg width="64" height="64" viewBox="0 0 64 64" fill="none" xmlns="http://www.w3.org/2000/svg">
<path d="M58.4605 31.7471C58.4605 17.0271 46.5138 5.08041 31.7938 5.08041C17.0738 5.08041 5.12714 17.0271 5.12714 31.7471C5.12714 46.4671 17.0738 58.4137 31.7938 58.4137" stroke="#646464" stroke-width="3.2" stroke-linecap="round" stroke-linejoin="round"/>
<path d="M21.1261 7.74707H23.7928C18.5928 23.3204 18.5928 40.1737 23.7928 55.7471H21.1261" stroke="#646464" stroke-width="3.2" stroke-linecap="round" stroke-linejoin="round"/>
<path d="M39.7938 7.74707C42.3805 15.5337 43.6872 23.6404 43.6872 31.7471" stroke="#646464" stroke-width="3.2" stroke-linecap="round" stroke-linejoin="round"/>
<path d="M7.79382 42.4137V39.7471C15.5805 42.3337 23.6872 43.6404 31.7938 43.6404" stroke="#646464" stroke-width="3.2" stroke-linecap="round" stroke-linejoin="round"/>
<path d="M7.79382 23.7474C23.3672 18.5474 40.2205 18.5474 55.7938 23.7474" stroke="#646464" stroke-width="3.2" stroke-linecap="round" stroke-linejoin="round"/>
<path d="M49.7938 63.4614C49.5945 63.4609 49.3974 63.4187 49.2154 63.3375C49.0333 63.2563 48.8702 63.1379 48.7367 62.9899C47.8224 62.0328 39.7938 52.8756 39.7938 47.7471C39.7938 45.0949 40.8474 42.5514 42.7228 40.676C44.5981 38.8006 47.1417 37.7471 49.7938 37.7471C52.446 37.7471 54.9895 38.8006 56.8649 40.676C58.7403 42.5514 59.7938 45.0949 59.7938 47.7471C59.7938 52.8756 51.7653 62.0328 50.851 62.9899C50.7174 63.1379 50.5543 63.2563 50.3723 63.3375C50.1902 63.4187 49.9932 63.4609 49.7938 63.4614ZM49.7938 40.6042C47.8994 40.6042 46.0826 41.3568 44.7431 42.6963C43.4035 44.0359 42.651 45.8527 42.651 47.7471C42.651 50.4756 46.6795 56.1614 49.7938 59.8614C52.9081 56.1471 56.9367 50.4756 56.9367 47.7471C56.9367 45.8527 56.1841 44.0359 54.8446 42.6963C53.505 41.3568 51.6882 40.6042 49.7938 40.6042Z" fill="#646464"/>
<path d="M49.7939 50.6042C49.2288 50.6042 48.6764 50.4367 48.2065 50.1227C47.7367 49.8088 47.3704 49.3626 47.1542 48.8405C46.9379 48.3184 46.8814 47.7439 46.9916 47.1897C47.1019 46.6355 47.374 46.1264 47.7735 45.7268C48.1731 45.3272 48.6822 45.0551 49.2365 44.9449C49.7907 44.8346 50.3652 44.8912 50.8872 45.1074C51.4093 45.3237 51.8555 45.6899 52.1695 46.1598C52.4834 46.6296 52.651 47.182 52.651 47.7471C52.651 48.5049 52.35 49.2316 51.8142 49.7674C51.2783 50.3032 50.5516 50.6042 49.7939 50.6042Z" fill="#646464"/>
</svg>
