<svg width="55" height="54" viewBox="0 0 55 54" fill="none" xmlns="http://www.w3.org/2000/svg">
<path d="M1.64686 9.80425C0.240042 11.2127 0.540673 13.1959 1.66015 14.3137C1.705 14.3569 6.20118 18.6521 12.5244 24.9753C12.6872 25.1381 12.8998 25.2178 13.1124 25.2178C13.325 25.2178 13.5376 25.1365 13.7004 24.9753C14.0242 24.6515 14.0242 24.1249 13.7004 23.8011C12.747 22.8477 11.8401 21.9458 10.9797 21.092L13.619 18.4528C13.9429 18.1289 13.9429 17.6024 13.619 17.2785C13.2951 16.9546 12.7686 16.9546 12.4447 17.2785L9.79879 19.9244C8.31889 18.4628 7.01504 17.1872 5.9537 16.1524L11.958 10.1481C12.2819 9.82418 12.2819 9.29766 11.958 8.97378C11.6341 8.64989 11.1076 8.64989 10.7837 8.97378L4.76114 14.9964C3.53868 13.8121 2.83444 13.1394 2.82281 13.1278C2.47235 12.7773 2.01227 11.7907 2.82281 10.9802L11.1276 2.67547C11.4481 2.34992 12.3018 1.70381 13.2386 2.63561C13.2801 2.68211 17.474 7.44571 23.8753 13.847C24.1992 14.1709 24.7257 14.1709 25.0496 13.847C25.3735 13.5231 25.3735 12.9966 25.0496 12.6727C18.6882 6.31294 14.5258 1.58589 14.4494 1.49952C12.9014 -0.0451629 11.0345 0.418241 9.95326 1.49952L1.64686 9.80425Z" fill="#646464" stroke="#646464" stroke-width="0.5"/>
<path d="M36.8722 40.5318C36.5483 40.2079 36.0218 40.2079 35.6979 40.5318L33.0554 43.1727C32.2498 42.3572 31.4044 41.5034 30.5141 40.6132C30.1902 40.2893 29.6637 40.2893 29.3398 40.6132C29.016 40.937 29.016 41.4636 29.3398 41.7875C35.492 47.9379 39.7889 52.5321 39.8503 52.5986C40.42 53.1699 41.2007 53.4838 42.0477 53.4838C42.9197 53.4838 43.8017 53.1433 44.3482 52.5952L52.6496 44.1958C53.6943 43.1511 53.7541 41.3789 52.7791 40.4006L41.6408 29.2639C41.3169 28.94 40.7904 28.94 40.4665 29.2639C40.1426 29.5878 40.1426 30.1143 40.4665 30.4382L51.6048 41.5748C51.937 41.907 51.8739 42.6246 51.4736 43.0249L43.1705 51.4243C42.9795 51.6169 42.546 51.8229 42.0477 51.8229C41.7621 51.8229 41.3535 51.7531 41.0445 51.4425C41.0279 51.4243 40.332 50.6818 39.1245 49.4178L45.177 43.3653C45.5009 43.0415 45.5009 42.5149 45.177 42.1911C44.8531 41.8672 44.3266 41.8672 44.0027 42.1911L37.9751 48.2186C36.9387 47.1407 35.668 45.8302 34.2214 44.3553L36.8722 41.7044C37.1961 41.3822 37.1961 40.8573 36.8722 40.5318Z" fill="#646464" stroke="#646464" stroke-width="0.5"/>
<path d="M0.809745 53.2928C0.969196 53.4556 1.18346 53.542 1.40436 53.542C1.48409 53.542 1.56381 53.5303 1.64188 53.5071L18.2513 48.5591C18.3859 48.5193 18.5055 48.4478 18.6035 48.3482L46.989 19.7716C47.0289 19.7317 47.0488 19.6802 47.0787 19.6354L53.1512 13.563C53.6395 13.073 53.9102 12.4236 53.9102 11.7309C53.9102 11.04 53.6395 10.3906 53.1512 9.9039L44.4561 1.2105C43.4795 0.233868 41.7737 0.233868 40.797 1.2105L34.5868 7.42078C34.5469 7.46065 34.5253 7.51214 34.4954 7.55864L6.06664 35.9891C5.97363 36.0821 5.90387 36.195 5.86401 36.3196L0.615414 52.4557C0.519079 52.7497 0.593822 53.0702 0.809745 53.2928ZM35.2212 9.18139L36.947 10.9071L11.1641 36.7598L8.29563 36.1087L35.2212 9.18139ZM12.2005 38.0736L38.1229 12.0831L42.169 16.1291L16.0124 41.9502H12.2005V38.0736ZM45.2268 19.1886L18.2464 46.3517L17.288 43.0265L43.3433 17.3034L45.2268 19.1886ZM7.20605 37.5636L10.5396 38.321V42.7807C10.5396 43.2391 10.9116 43.6112 11.37 43.6112H15.7284L16.7814 47.2652L2.68329 51.4658L7.20605 37.5636ZM41.973 2.38479C42.3234 2.03433 42.933 2.03433 43.2835 2.38479L51.9785 11.0799C52.1529 11.2543 52.2493 11.4868 52.2493 11.7343C52.2493 11.9801 52.1529 12.2143 51.9769 12.3903L46.3778 17.9911L36.3739 7.98717L41.973 2.38479Z" fill="#646464" stroke="#646464" stroke-width="0.5"/>
</svg>
