<svg width="64" height="64" viewBox="0 0 64 64" fill="none" xmlns="http://www.w3.org/2000/svg">
<path d="M45.5412 25.1309C45.8957 24.6938 46.0888 24.1156 46.0796 23.5182C46.0704 22.9208 45.8598 22.3508 45.492 21.9283C45.1243 21.5058 44.6281 21.2638 44.1082 21.2533C43.5882 21.2427 43.0849 21.4645 42.7044 21.8718L28.0656 38.6899L21.4554 31.0956C21.0749 30.6883 20.5716 30.4666 20.0516 30.4771C19.5316 30.4876 19.0355 30.7297 18.6678 31.1522C18.3 31.5746 18.0894 32.1446 18.0802 32.742C18.071 33.3394 18.264 33.9176 18.6186 34.3547L26.6472 43.5785C27.0235 44.0104 27.5337 44.2529 28.0656 44.2529C28.5975 44.2529 29.1076 44.0104 29.484 43.5785L45.5412 25.1309Z" fill="#646464"/>
<path fill-rule="evenodd" clip-rule="evenodd" d="M37.696 3.19999C36.0443 1.9877 34.0489 1.33401 32 1.33401C29.9512 1.33401 27.9557 1.9877 26.304 3.19999L22.6374 5.89333C21.9061 6.42925 21.0562 6.78056 20.16 6.91733L15.664 7.60799C13.639 7.91848 11.7659 8.86687 10.317 10.3152C8.8682 11.7636 7.91918 13.6364 7.60802 15.6613L6.91736 20.16C6.78059 21.0562 6.42928 21.9061 5.89336 22.6373L3.20002 26.304C1.98773 27.9557 1.33405 29.9511 1.33405 32C1.33405 34.0488 1.98773 36.0443 3.20002 37.696L5.89336 41.3627C6.42669 42.0933 6.78136 42.944 6.91736 43.84L7.60802 48.336C7.91851 50.361 8.8669 52.2341 10.3153 53.683C11.7637 55.1318 13.6365 56.0808 15.6614 56.392L20.16 57.0827C21.056 57.2187 21.9067 57.5707 22.6374 58.1067L26.304 60.8C27.9557 62.0123 29.9512 62.666 32 62.666C34.0489 62.666 36.0443 62.0123 37.696 60.8L41.3627 58.1067C42.0939 57.5707 42.9438 57.2194 43.84 57.0827L48.336 56.392C50.361 56.0815 52.2341 55.1331 53.683 53.6847C55.1319 52.2364 56.0809 50.3635 56.392 48.3387L57.0827 43.84C57.2195 42.9438 57.5708 42.0939 58.1067 41.3627L60.8 37.696C62.0123 36.0443 62.666 34.0488 62.666 32C62.666 29.9511 62.0123 27.9557 60.8 26.304L58.1067 22.6373C57.5708 21.9061 57.2195 21.0562 57.0827 20.16L56.392 15.664C56.0815 13.639 55.1331 11.7659 53.6848 10.317C52.2364 8.86816 50.3636 7.91915 48.3387 7.60799L43.84 6.91733C42.9438 6.78056 42.0939 6.42925 41.3627 5.89333L37.696 3.19999ZM28.672 6.42399C29.6372 5.716 30.803 5.33426 32 5.33426C33.197 5.33426 34.3628 5.716 35.328 6.42399L38.9974 9.11732C40.2478 10.035 41.7015 10.637 43.2347 10.872L47.7307 11.56C48.9142 11.742 50.0089 12.2968 50.8553 13.1438C51.7018 13.9907 52.256 15.0857 52.4374 16.2693L53.1307 20.7653C53.3645 22.2992 53.9655 23.7538 54.8827 25.0053L57.576 28.672C58.284 29.6372 58.6658 30.803 58.6658 32C58.6658 33.197 58.284 34.3628 57.576 35.328L54.8827 38.9973C53.965 40.2478 53.363 41.7015 53.128 43.2347L52.44 47.7307C52.258 48.9142 51.7032 50.0088 50.8562 50.8553C50.0093 51.7018 48.9143 52.256 47.7307 52.4373L43.2347 53.1307C41.7008 53.3644 40.2462 53.9655 38.9947 54.8827L35.328 57.576C34.3628 58.284 33.197 58.6657 32 58.6657C30.803 58.6657 29.6372 58.284 28.672 57.576L25.0027 54.8827C23.7522 53.9649 22.2985 53.363 20.7654 53.128L16.2694 52.44C15.0853 52.2585 13.9901 51.7039 13.1431 50.8569C12.2961 50.0099 11.7415 48.9147 11.56 47.7307L10.872 43.2347C10.6375 41.7005 10.0355 40.2459 9.11736 38.9947L6.42402 35.328C5.71603 34.3628 5.33429 33.197 5.33429 32C5.33429 30.803 5.71603 29.6372 6.42402 28.672L9.11736 25.0027C10.0351 23.7522 10.637 22.2985 10.872 20.7653L11.56 16.2693C11.7415 15.0853 12.2961 13.9901 13.1431 13.1431C13.9901 12.2961 15.0853 11.7415 16.2694 11.56L20.7654 10.872C22.2995 10.6374 23.7541 10.0354 25.0054 9.11732L28.672 6.42399Z" fill="#646464"/>
</svg>
