<svg width="20" height="20" viewBox="0 0 20 20" fill="none" xmlns="http://www.w3.org/2000/svg">
<path d="M7.05433 16.4738C7.05433 16.7695 6.7749 17.0163 6.43943 17.0163C6.1047 17.0163 5.82454 16.7695 5.82454 16.4738C5.82454 16.1781 6.10397 15.9306 6.43943 15.9306C6.77417 15.9306 7.05433 16.1774 7.05433 16.4738ZM9.03509 5.87722C9.038 6.6422 9.05328 7.40717 9.01689 8.1728C8.96741 9.17755 8.97906 10.1862 9.00671 11.1922C9.02053 11.684 9.03654 12.1745 9.03363 12.6662C9.03218 12.9144 9.03218 13.1619 9.03363 13.41C9.03363 13.6774 9.05037 13.9429 9.00816 14.2078C8.98851 14.3312 8.85826 14.4553 8.74256 14.515C8.60866 14.5838 8.44421 14.6025 8.2943 14.5665C8.20844 14.5459 8.13276 14.5022 8.06654 14.4495C7.8475 14.443 7.62702 14.4488 7.40871 14.4501C7.12491 14.4501 6.83966 14.4463 6.55514 14.4418C6.24296 14.4379 5.93078 14.434 5.6186 14.443C5.28241 14.4501 4.94768 14.4617 4.61294 14.463C4.51835 14.463 4.43102 14.4385 4.35025 14.4032C4.10793 14.3325 3.92019 14.1351 3.92528 13.8998C3.9311 13.6189 3.95657 13.338 3.95948 13.0564C3.96239 12.7209 3.96385 12.3834 3.96385 12.0478C3.96239 11.3626 3.96676 10.6786 3.97258 9.99331C3.97986 8.97249 3.94566 7.95102 3.92892 6.9289C3.91946 6.40884 3.91509 5.88815 3.91509 5.36745C3.91509 5.11545 3.91946 4.86218 3.91073 4.61018C3.90272 4.36719 3.88162 4.12612 3.86052 3.88442C3.81104 3.80535 3.77465 3.72049 3.77465 3.62728C3.77465 3.33029 4.05408 3.08537 4.38954 3.08408C4.77813 3.0828 5.16671 3.08151 5.55675 3.08408C5.70374 3.08537 5.85074 3.08408 5.99773 3.08408C6.16437 3.0828 6.32955 3.08151 6.49619 3.0828C6.79964 3.08537 7.10527 3.0963 7.40871 3.0963C7.70852 3.09501 8.00323 3.07765 8.30304 3.05516C8.31613 3.05451 8.32851 3.05387 8.3416 3.05387C8.3678 3.05387 8.39036 3.06608 8.41583 3.06994C8.43111 3.06866 8.44566 3.06158 8.46094 3.06158C8.77894 3.06158 9.0249 3.29108 9.0329 3.56557C9.05619 4.33569 9.03363 5.1071 9.03509 5.87722ZM7.88898 12.9722C7.88753 12.6174 7.8788 12.2619 7.86788 11.9077C7.85842 11.5741 7.85842 11.2411 7.8606 10.9081C7.83805 10.9061 7.81694 10.9081 7.79366 10.9049C7.7922 10.9049 7.79002 10.9042 7.78856 10.9042C7.56152 10.8856 7.33303 10.8894 7.10454 10.8862C6.85567 10.8824 6.60826 10.8759 6.36012 10.8746C5.9417 10.8708 5.52473 10.8933 5.10704 10.91C5.10777 11.0611 5.1085 11.2128 5.10995 11.3645C5.11432 11.81 5.10995 12.2568 5.10559 12.7022C5.10413 12.9304 5.10268 13.1606 5.11141 13.3875C5.11141 13.3939 5.11214 13.3997 5.11214 13.4061C5.2977 13.4087 5.48253 13.4106 5.66809 13.4126C5.96353 13.4151 6.25897 13.4061 6.55514 13.4023C6.76835 13.4004 6.98083 13.3965 7.19332 13.3965C7.27263 13.3965 7.35195 13.3971 7.43127 13.3984C7.51714 13.3997 7.60519 13.3997 7.69251 13.3997C7.758 13.3997 7.82349 13.4036 7.88898 13.4036C7.88898 13.2602 7.88898 13.1169 7.88898 12.9722ZM7.93337 7.43739C7.44655 7.41682 6.96118 7.38403 6.47364 7.3731C6.00719 7.36217 5.5422 7.3731 5.07648 7.38275C5.08157 7.69388 5.08448 8.00501 5.08958 8.31679C5.09613 8.83685 5.09758 9.35626 5.09977 9.87568C5.5502 9.87053 6.00137 9.86925 6.4518 9.85446C6.71013 9.84675 6.97064 9.83839 7.23043 9.83582C7.36287 9.83325 7.49603 9.83196 7.6292 9.83068C7.63939 9.83068 7.64885 9.83068 7.65903 9.83068C7.73035 9.83068 7.80021 9.84225 7.87006 9.84868C7.87006 9.80625 7.87079 9.76382 7.87152 9.72204C7.87297 9.20391 7.88025 8.68964 7.90936 8.1728C7.92318 7.92787 7.92973 7.68295 7.93337 7.43739ZM7.94429 5.12574C7.9421 4.78953 7.92391 4.45333 7.90936 4.11713C7.89117 4.11777 7.8737 4.11777 7.85551 4.11841C7.70706 4.12484 7.55716 4.12998 7.40871 4.1287C7.10527 4.12613 6.79964 4.12098 6.49619 4.12484C6.0181 4.13062 5.54002 4.14348 5.06265 4.15441C5.08594 4.79918 5.05683 5.44394 5.05902 6.09C5.05902 6.19607 5.06265 6.30149 5.06338 6.40692C5.19291 6.4082 5.32171 6.40885 5.45124 6.41077C5.80416 6.41592 6.15782 6.42042 6.5122 6.41463C6.79163 6.41077 7.07179 6.40627 7.35122 6.41077C7.5477 6.41463 7.7449 6.41592 7.94138 6.42235C7.94356 5.99036 7.94647 5.55837 7.94429 5.12574ZM19.9933 7.66624C20.01 7.77552 19.9984 7.88737 19.9242 7.98123C19.7444 8.20944 19.5698 8.43957 19.3886 8.66649C19.0371 9.11198 18.6609 9.5414 18.3131 9.98946C18.1537 10.1952 18.0038 10.406 17.8539 10.6162C17.6945 10.8412 17.5177 11.0521 17.3409 11.2655C16.9865 11.6949 16.6525 12.1378 16.3054 12.5724C15.959 13.0082 15.5974 13.4338 15.2371 13.8606C14.8864 14.2778 14.5466 14.7021 14.2097 15.129C13.8887 15.5346 13.5526 15.9319 13.2236 16.3323C13.0599 16.5323 12.8998 16.7354 12.7419 16.9392C12.5826 17.1449 12.4312 17.357 12.2675 17.5595C12.1066 17.7607 11.9415 17.9594 11.7741 18.1561C11.6031 18.3566 11.4437 18.563 11.2684 18.7616C11.1825 18.8606 11.0013 18.9088 10.8674 18.9088C10.8528 18.9088 10.8397 18.9024 10.8252 18.9011C10.7226 18.9616 10.6076 19.0053 10.4788 18.9995C10.39 18.9956 10.302 18.9924 10.2147 18.9886C9.61141 18.9661 9.00816 18.9609 8.40491 18.9648C7.78201 18.9673 7.15839 18.9545 6.53694 18.9532C5.90531 18.9532 5.27514 18.9397 4.64496 18.9243C4.01624 18.9095 3.38752 18.9178 2.7588 18.8992C2.42698 18.8902 2.14973 18.662 2.14973 18.3624C2.14973 18.2821 2.17593 18.2062 2.21522 18.1355C2.21304 17.098 2.21377 16.0604 2.17083 15.0235C2.12572 13.9313 2.05222 12.8404 2.01511 11.747C1.97945 10.6786 2.01656 9.6089 2.02821 8.53921C2.03839 7.43803 2.03694 6.33621 2.04058 5.23502C2.04349 4.70982 2.03039 4.18527 2.03039 3.66007C2.03184 3.08858 2.01511 2.51774 2.00929 1.94626C2.00783 1.86976 2.02748 1.79648 2.06095 1.72962C2.04203 1.67948 2.02457 1.62805 2.02457 1.57213C2.02457 1.29571 2.28653 1.045 2.60453 1.045C2.60963 1.045 2.61545 1.045 2.62054 1.045C2.87159 1.05207 3.12337 1.05978 3.37661 1.06428C3.97986 1.07714 4.58165 1.0855 5.1849 1.08164C5.77797 1.07843 6.37176 1.09578 6.96337 1.10285C7.55425 1.11057 8.1444 1.10671 8.73528 1.11314C9.1748 1.117 9.61578 1.12857 10.056 1.12407C10.1652 1.05143 10.2933 1 10.4359 1C10.7866 1 11.0762 1.25714 11.0777 1.5657C11.0777 1.64862 11.0799 1.73091 11.0799 1.81383L11.0828 1.81448C11.2669 1.89226 11.451 1.96683 11.6351 2.04204C11.9837 2.16932 12.3315 2.29275 12.6837 2.41296C13.0439 2.53638 13.4114 2.6476 13.7745 2.76588C14.1274 2.88223 14.4905 2.97673 14.85 3.08151C15.2779 3.20879 15.716 3.31615 16.1075 3.52186C16.3869 3.67035 16.4888 3.99627 16.3221 4.24698C16.3112 4.26369 16.2923 4.27398 16.2792 4.28876C16.2042 4.49704 16.122 4.70275 16.0405 4.9091C16.6423 5.23759 17.2383 5.57315 17.8124 5.93829C18.1428 6.14785 18.4608 6.37285 18.7955 6.57984C18.9498 6.67434 19.1019 6.77205 19.2532 6.8704C19.3253 6.91669 19.3973 6.96426 19.4679 7.01054C19.5552 7.06776 19.6498 7.12175 19.7306 7.18668C19.8056 7.24646 19.863 7.31525 19.9242 7.38789C19.9875 7.46182 19.9998 7.5666 19.9933 7.66624ZM9.9738 6.77526C9.98617 6.21214 9.98399 5.64965 9.95998 5.08781C9.93451 4.5099 9.91486 3.93199 9.88502 3.35408C9.86538 2.9568 9.83991 2.56081 9.81953 2.16354C9.79042 2.1629 9.76204 2.16161 9.73294 2.16097C8.57446 2.15132 7.41599 2.13847 6.25751 2.11597C5.66154 2.10375 5.06484 2.08704 4.46741 2.08961C4.06209 2.0909 3.65749 2.09283 3.25217 2.09475C3.24635 2.67588 3.24053 3.25701 3.24926 3.83878C3.25945 4.41669 3.27764 4.99589 3.28055 5.5738C3.28492 6.68334 3.27036 7.79288 3.25945 8.90242C3.24781 9.9721 3.25654 11.0418 3.28928 12.1115C3.30602 12.6405 3.31184 13.1689 3.34168 13.6967C3.37297 14.2611 3.41081 14.8249 3.43337 15.3906C3.45301 15.9061 3.4421 16.4217 3.46975 16.9373C3.48576 17.2413 3.49231 17.5454 3.50031 17.8494C4.58893 17.8893 5.67828 17.8977 6.76762 17.8919C7.39925 17.888 8.03088 17.8906 8.66251 17.8668C8.96596 17.8559 9.26867 17.8353 9.57212 17.8334C9.63761 17.8327 9.70383 17.834 9.77005 17.834C9.79552 17.4695 9.82099 17.1057 9.83263 16.7393C9.85082 16.1954 9.85373 15.6535 9.85228 15.109C9.84791 13.9931 9.85082 12.8784 9.89448 11.7624C9.9396 10.6252 9.93523 9.48804 9.93669 8.35022C9.93742 7.82502 9.96289 7.30111 9.9738 6.77526ZM11.1075 2.97609C11.1126 3.08151 11.1134 3.18694 11.1199 3.29301C11.1556 3.83685 11.1781 4.38262 11.2101 4.9271C11.2443 5.4973 11.2596 6.06814 11.2458 6.63834C11.2334 7.16997 11.208 7.70159 11.205 8.23322C11.2007 8.79635 11.205 9.35819 11.2021 9.91939C11.1992 10.4838 11.1781 11.045 11.1585 11.6081C11.1345 12.3185 11.1294 13.0294 11.1279 13.7404C11.3928 13.1664 11.6504 12.5897 11.9087 12.0144C12.0557 11.6885 12.1954 11.36 12.3381 11.0334C12.485 10.6966 12.6415 10.3617 12.7848 10.0235C12.9966 9.52404 13.172 9.01491 13.3699 8.51221C13.5664 8.01787 13.7498 7.52096 13.9506 7.02918C14.1529 6.53613 14.369 6.0495 14.5684 5.55644C14.7467 5.11545 14.901 4.66868 15.0538 4.22127C14.719 4.10684 14.3734 4.01877 14.0321 3.92042C13.6704 3.81692 13.3161 3.69607 12.9566 3.58357C12.5695 3.46143 12.178 3.34636 11.7908 3.22422C11.5587 3.15094 11.3353 3.05901 11.1075 2.97609ZM12.063 14.3723C12.0623 14.3736 12.0615 14.3755 12.0615 14.3755C12.0637 14.371 12.0659 14.3672 12.0681 14.3627C12.0659 14.3659 12.0644 14.3691 12.063 14.3723ZM18.6798 7.76074C18.487 7.63024 18.2949 7.49974 18.0999 7.37375C17.8015 7.18154 17.5148 6.97583 17.2041 6.79969C16.8773 6.61455 16.5513 6.43134 16.2181 6.25392C16.018 6.14721 15.8164 6.04436 15.6148 5.94022C15.5515 6.08678 15.4904 6.23399 15.4256 6.38056C15.2772 6.71869 15.1316 7.05683 14.9963 7.39882C14.858 7.74981 14.7336 8.10273 14.599 8.455C14.4039 8.97056 14.2133 9.48869 14.0066 10.0017C13.8131 10.4799 13.5838 10.9479 13.3765 11.4211C13.1662 11.898 12.9471 12.3718 12.7448 12.8527C12.5484 13.3219 12.3424 13.7899 12.1219 14.2508C12.1052 14.2843 12.0892 14.319 12.0732 14.353C12.0826 14.3344 12.0914 14.3158 12.1008 14.2965C12.0841 14.3312 12.0674 14.3659 12.0506 14.4006C12.0484 14.4058 12.0455 14.4109 12.0433 14.4167C12.0455 14.4122 12.0477 14.4077 12.0499 14.4032C11.9502 14.6057 11.8461 14.8062 11.7472 15.01C11.6104 15.3102 11.4808 15.6137 11.371 15.9235C11.2596 16.2379 11.1774 16.5631 11.101 16.8865C11.0973 17.0337 11.0901 17.1809 11.085 17.3275C11.3171 17.0324 11.5485 16.7373 11.7734 16.4371C12.087 16.0199 12.4174 15.6156 12.7456 15.2074C13.0745 14.7992 13.3997 14.3871 13.7221 13.9744C14.0612 13.5379 14.417 13.113 14.7692 12.6849C15.1236 12.2542 15.47 11.8196 15.8193 11.3857C16.1657 10.9563 16.5339 10.5423 16.8693 10.1065C17.2026 9.6719 17.5323 9.23669 17.8794 8.80985C18.0562 8.59385 18.2301 8.37529 18.3953 8.15222C18.4892 8.02173 18.5845 7.89187 18.6798 7.76074Z" fill="white"/>
</svg>
