<svg width="26" height="18" viewBox="0 0 26 18" fill="none" xmlns="http://www.w3.org/2000/svg">
<path fill-rule="evenodd" clip-rule="evenodd" d="M10.5676 11.9902V5.04675C13.0325 6.20662 14.9416 7.32708 17.1995 8.53508C15.3372 9.56785 13.0325 10.7267 10.5676 11.9902ZM24.3047 1.59346C23.8795 1.03326 23.1548 0.597199 22.3833 0.452833C20.1155 0.0221946 5.96803 0.0209696 3.70153 0.452833C3.08283 0.568816 2.5319 0.849165 2.05863 1.28474C0.0645013 3.1356 0.689367 13.0612 1.17003 14.669C1.37215 15.3649 1.63345 15.8668 1.96252 16.1962C2.38648 16.6318 2.96697 16.9317 3.63373 17.0662C5.50092 17.4524 15.1203 17.6684 22.3438 17.1242C23.0093 17.0082 23.5984 16.6986 24.0631 16.2446C25.9069 14.4011 25.7812 3.91814 24.3047 1.59346Z" fill="white"/>
</svg>
